<?xml version="1.0" encoding="UTF-8" standalone="no"?>
<!DOCTYPE svg PUBLIC "-//W3C//DTD SVG 1.1//EN" "http://www.w3.org/Graphics/SVG/1.1/DTD/svg11.dtd">
<svg width="100%" height="100%" viewBox="0 0 494 170" version="1.1" xmlns="http://www.w3.org/2000/svg" xmlns:xlink="http://www.w3.org/1999/xlink" xml:space="preserve" xmlns:serif="http://www.serif.com/" style="fill-rule:evenodd;clip-rule:evenodd;stroke-linejoin:round;stroke-miterlimit:2;">
    <rect x="0" y="0" width="494" height="170" style="fill:none;"/>
    <clipPath id="_clip1">
        <rect x="0" y="0" width="494" height="170"/>
    </clipPath>
    <g clip-path="url(#_clip1)">
        <g id="Kroon" transform="matrix(1.57325,0,0,1.57325,0,0)">
            <g>
                <rect x="0" y="0" width="314" height="125" style="fill:none;"/>
                <rect x="0" y="0" width="50" height="100" style="fill:rgb(21,66,115);"/>
            </g>
            <path d="M25.9,77.36L25.03,77.36L25.03,74.95L25.9,74.95L25.9,77.36ZM29.83,66.72L28.96,66.72L28.96,64.31L29.83,64.31L29.83,66.72ZM13.71,62.56C13.64,62.56 13.19,62.56 13.19,62.65C13.19,62.74 13.4,62.7 13.71,62.75C14.41,62.87 14.68,63.22 15.17,63.22C15.61,63.22 16.07,62.92 15.89,62.28C15.86,62.17 15.8,62.2 15.78,62.27C15.71,62.56 15.36,62.72 14.99,62.72C14.53,62.72 14.44,62.56 13.71,62.56ZM8.92,64.97C9,65.08 9.82,66.14 8.56,66.55C8.5,66.57 8.49,66.62 8.57,66.66C9.5,67.05 9.95,66.33 9.95,66.33C10.42,67.41 9.7,68 9.7,68C9.8,68.19 10.25,68.52 10.92,68.67C11.18,68.53 11.54,68.27 11.69,67.87C11.69,67.87 11.87,68.34 11.71,68.79C13.61,68.96 14.28,67.44 15.75,67.72C15.79,67.73 15.81,67.7 15.81,67.66C15.81,66.72 15.24,65.01 13.42,64.66C11.61,64.31 12.1,63.57 12.1,63.57C12.86,63.54 13.3,63.87 13.3,63.87C13.44,63.64 13.24,63.4 13.24,63.4C13.31,63.31 13.35,63 13.35,63C12.49,63 12.27,62.81 12.27,62.81C12.14,62.3 12.49,61.58 13.77,62.35C14.09,62.07 14.06,61.63 14.06,61.63C14.16,61.58 14.22,61.43 14.22,61.37C14.22,61.16 13.2,60.59 12.94,60.52C12.88,60.21 12.48,59.77 11.28,59.93C10.71,60 10.3,59.85 10.49,59.52C10.52,59.46 10.42,59.45 10.37,59.51C10.24,59.64 10.06,60.01 10.55,60.26C11.1,60.54 11.13,61.09 11.14,61.17C11.15,61.29 11.01,61.3 10.98,61.18C10.73,60.25 9.45,60.05 8.7,60.54C8.74,61.04 9.28,61.37 9.57,61.37C9.74,61.37 9.97,61.2 9.97,60.97C9.97,60.86 10.03,60.87 10.06,60.96C10.18,61.29 9.69,61.98 8.97,61.56C8.23,62.3 8.53,63.22 8.6,63.55C8.73,64.15 8.44,64.74 7.89,64.47C7.86,64.46 7.83,64.45 7.83,64.51C7.84,64.87 8.33,65.3 8.92,64.97ZM13,61.24C12.65,61.63 12.09,61.54 11.95,60.9C12.67,60.86 12.97,60.93 13,61.24ZM35.07,62.72C34.7,62.72 34.35,62.56 34.28,62.27C34.26,62.2 34.2,62.17 34.17,62.28C33.99,62.92 34.45,63.22 34.89,63.22C35.38,63.22 35.65,62.87 36.35,62.75C36.66,62.7 36.87,62.75 36.87,62.65C36.87,62.56 36.42,62.56 36.35,62.56C35.63,62.56 35.53,62.72 35.07,62.72ZM42.23,64.49C42.23,64.43 42.2,64.44 42.17,64.45C41.62,64.72 41.33,64.14 41.46,63.53C41.53,63.19 41.83,62.28 41.09,61.54C40.36,61.96 39.87,61.27 40,60.94C40.03,60.85 40.09,60.84 40.09,60.95C40.09,61.18 40.32,61.35 40.49,61.35C40.78,61.35 41.32,61.02 41.36,60.52C40.61,60.03 39.33,60.23 39.08,61.16C39.05,61.28 38.91,61.27 38.92,61.15C38.92,61.07 38.96,60.52 39.51,60.24C40.01,59.99 39.83,59.62 39.69,59.49C39.64,59.44 39.53,59.45 39.57,59.5C39.76,59.83 39.35,59.98 38.79,59.91C37.59,59.75 37.2,60.2 37.13,60.5C36.87,60.57 35.85,61.14 35.85,61.35C35.85,61.41 35.91,61.57 36.01,61.61C36.01,61.61 35.99,62.04 36.3,62.33C37.57,61.56 37.93,62.28 37.8,62.79C37.8,62.79 37.57,62.97 36.71,62.98C36.71,62.98 36.75,63.29 36.82,63.38C36.82,63.38 36.62,63.63 36.76,63.85C36.76,63.85 37.2,63.52 37.96,63.55C37.96,63.55 38.45,64.29 36.64,64.64C34.83,64.99 34.25,66.7 34.25,67.64C34.25,67.69 34.27,67.71 34.31,67.7C35.78,67.43 36.45,68.95 38.35,68.77C38.18,68.32 38.37,67.85 38.37,67.85C38.52,68.25 38.88,68.52 39.14,68.65C39.82,68.5 40.26,68.18 40.36,67.98C40.36,67.98 39.64,67.39 40.11,66.31C40.11,66.31 40.56,67.03 41.49,66.64C41.57,66.6 41.55,66.55 41.5,66.53C40.24,66.12 41.06,65.06 41.14,64.95C41.73,65.3 42.23,64.87 42.23,64.49ZM38.11,60.9C37.97,61.54 37.41,61.63 37.06,61.24C37.09,60.93 37.4,60.86 38.11,60.9ZM24.7,50.21C24.7,50.37 24.77,50.51 24.82,50.59C24.93,50.75 24.91,50.84 24.86,50.89C24.81,50.94 24.72,50.96 24.56,50.85C24.48,50.79 24.34,50.73 24.18,50.73C23.91,50.73 23.77,50.91 23.77,51.06C23.77,51.21 23.91,51.39 24.18,51.39C24.34,51.39 24.48,51.32 24.56,51.27C24.72,51.16 24.81,51.18 24.86,51.23C24.91,51.28 24.84,51.83 24.77,52.27C24.32,52.37 24.1,52.73 24.1,52.94C24.1,53.49 24.68,53.8 25.03,53.99C25.37,53.81 25.96,53.49 25.96,52.94C25.96,52.73 25.74,52.36 25.29,52.27C25.23,51.84 25.15,51.28 25.2,51.23C25.25,51.18 25.34,51.16 25.5,51.27C25.58,51.33 25.72,51.39 25.88,51.39C26.15,51.39 26.29,51.21 26.29,51.06C26.29,50.91 26.15,50.73 25.88,50.73C25.72,50.73 25.58,50.8 25.5,50.85C25.34,50.96 25.25,50.94 25.2,50.89C25.15,50.84 25.13,50.75 25.24,50.59C25.3,50.51 25.36,50.37 25.36,50.21C25.36,49.94 25.18,49.8 25.03,49.8C24.88,49.8 24.7,49.94 24.7,50.21ZM25.03,54.27C24.66,54.27 24.36,54.57 24.36,54.94C24.36,55.31 24.66,55.61 25.03,55.61C25.4,55.61 25.7,55.31 25.7,54.94C25.7,54.57 25.4,54.27 25.03,54.27ZM25.03,60.68C27.7,60.68 29.2,61.19 29.2,61.19C29.21,59.84 29.21,59.09 29.98,59.2C29.56,58.07 31.38,57.62 31.38,56.15C31.38,55.18 30.69,55.07 30.49,55.07C29.89,55.07 29.98,55.46 29.47,55.46C29.41,55.46 29.34,55.44 29.34,55.49C29.34,55.66 29.48,55.95 29.72,55.95C30.04,55.95 30.04,55.63 30.28,55.63C30.38,55.63 30.53,55.71 30.53,56.04C30.53,56.67 30.12,57.36 29.63,57.9C29.52,57.75 29.37,57.65 29.18,57.65C28.89,57.65 28.64,57.95 28.64,58.32C28.64,58.46 28.66,58.56 28.71,58.67C28.55,58.76 28.4,58.81 28.3,58.81C28.08,58.81 27.75,58.72 27.75,58.24C27.75,57.17 29.18,56.23 29.18,54.87C29.18,54.22 28.75,53.58 27.84,53.58C26.87,53.58 27.05,54.46 26.21,54.46C26.17,54.46 26.14,54.47 26.14,54.51C26.14,54.57 26.29,55.06 26.72,55.06C27.18,55.06 27.31,54.26 27.73,54.26C27.88,54.26 28.11,54.35 28.11,54.89C28.11,55.31 27.9,56 27.6,56.65C27.49,56.54 27.34,56.46 27.18,56.46C26.82,56.46 26.56,56.81 26.56,57.22C26.56,57.48 26.66,57.74 26.84,57.9C26.63,58.17 26.41,58.39 26.12,58.39C25.54,58.39 25.29,58.06 25.29,57.7C25.29,57.31 26,57.17 26,56.57C26,56.16 25.73,55.93 25.48,55.93C25.2,55.93 25.06,56.11 25.03,56.11C25,56.11 24.86,55.93 24.58,55.93C24.32,55.93 24.06,56.16 24.06,56.57C24.06,57.17 24.77,57.32 24.77,57.7C24.77,58.06 24.51,58.39 23.94,58.39C23.65,58.39 23.43,58.17 23.22,57.9C23.4,57.73 23.5,57.48 23.5,57.22C23.5,56.8 23.24,56.46 22.88,56.46C22.71,56.46 22.57,56.54 22.46,56.65C22.16,55.99 21.95,55.31 21.95,54.89C21.95,54.35 22.18,54.26 22.33,54.26C22.74,54.26 22.87,55.06 23.34,55.06C23.77,55.06 23.92,54.57 23.92,54.51C23.92,54.48 23.89,54.46 23.85,54.46C23.01,54.46 23.19,53.58 22.22,53.58C21.32,53.58 20.88,54.22 20.88,54.87C20.88,56.23 22.31,57.17 22.31,58.24C22.31,58.72 21.98,58.81 21.76,58.81C21.65,58.81 21.51,58.76 21.35,58.67C21.4,58.55 21.42,58.46 21.42,58.32C21.42,57.95 21.17,57.65 20.88,57.65C20.7,57.65 20.55,57.75 20.44,57.9C19.95,57.36 19.54,56.67 19.54,56.04C19.54,55.72 19.69,55.63 19.79,55.63C20.02,55.63 20.03,55.95 20.35,55.95C20.59,55.95 20.73,55.66 20.73,55.49C20.73,55.44 20.66,55.46 20.6,55.46C20.09,55.46 20.18,55.07 19.58,55.07C19.38,55.07 18.69,55.18 18.69,56.15C18.69,57.63 20.51,58.07 20.09,59.2C20.86,59.09 20.85,59.84 20.87,61.19C20.86,61.19 22.36,60.68 25.03,60.68ZM20.14,62.67C19.41,62.83 18.89,62.98 18.66,63.05C18.67,62.73 18.79,62.43 19.08,62.37C19.12,62.36 19.13,62.31 19.09,62.29C18.44,61.86 18.1,62.68 18.09,62.71C17.86,62.69 17.51,62.76 17.51,63.07C17.51,64 15.39,64.51 14.9,64.59C15.77,64.92 16.13,66.02 16.13,66.02C16.76,65.39 17.49,64.84 17.66,64.84C17.83,64.84 17.89,65.05 17.9,65.17C17.9,65.21 17.94,65.22 17.97,65.19C18.3,64.7 18.14,64.59 18.11,64.44C18.09,64.33 18.12,63.9 18.6,63.95L18.6,70.14L18.35,70.19C18.24,70.21 17.33,69.44 16.3,68.72C15.26,68 14.71,68.43 13.53,69.07C11.98,69.91 10.42,69.15 10.42,69.15C9.09,70.1 8.63,72.86 8.63,72.86C8.36,72.97 7.92,73.09 7.51,73.09C6.49,73.09 6.31,72.47 6.31,72.11C6.31,70.54 8.28,69.87 8.28,68.32C8.28,67.94 8.11,66.42 6.22,66.42L4.53,66.42C3.82,66.42 3.65,65.91 3.55,65.72C3.51,65.64 3.44,65.69 3.47,65.75C3.52,65.88 3.39,66.08 3.39,66.47C3.39,67.1 3.76,67.48 4.45,67.48C4.76,67.48 5.06,67.39 5.15,67.33C5.21,67.29 5.25,67.35 5.22,67.39C4.92,67.74 4.9,68.4 5.02,68.55C5.05,68.59 5.09,68.58 5.09,68.55C5.26,67.89 5.88,67.26 6.72,67.26C7.75,67.26 7.74,68.13 7.74,68.34C7.74,69.6 5.53,70.52 5.53,72.26C5.53,74.02 7.39,74.39 8.46,74.12C8.4,75.88 6.38,76.48 6.32,75.22C6.32,75.16 6.27,75.15 6.24,75.23C5.99,75.85 6.09,76.4 6.87,76.57C6.92,76.58 6.9,76.61 6.85,76.65C6.07,77.14 6.49,79.08 6.53,79.65C6.59,80.47 5.77,80.37 5.7,80.35C5.67,80.34 5.63,80.35 5.69,80.42C6.27,81.13 6.99,80.48 6.99,80.48C7.53,80.65 7.2,81.11 6.83,81.35C6.77,81.39 6.78,81.43 6.84,81.43C6.92,81.44 7.76,81.51 7.91,80.84C8.28,81.28 8.83,81.12 8.94,81.06C9.1,80.98 9.89,80.69 9.96,81.57C9.96,81.63 10,81.59 10.03,81.56C10.62,80.81 9.99,80.35 9.63,80.3C9.66,80.26 10.13,79.86 10.56,80.41C10.59,80.45 10.62,80.46 10.62,80.38C10.67,79.43 9.9,79.35 9.4,79.76C9.38,79.66 9.21,79.13 9.96,79.15C9.98,79.15 10.01,79.12 9.98,79.09C9.4,78.47 8.92,79.03 8.8,79.17C8.54,79.48 7.89,79.35 7.83,79.35C8.03,76.06 10.93,77.23 11.33,75.63C11.35,75.55 11.39,75.58 11.39,75.61C11.5,76 12.48,76.05 12.66,75.29C12.67,75.24 12.66,75.21 12.63,75.24C11.79,76.08 9.9,73.46 12.48,71.33C14.68,69.52 16.65,70.53 17.4,71.12C17.44,71.38 17.28,71.47 17.18,71.5C17.14,71.51 17.13,71.54 17.19,71.57C17.4,71.65 17.69,71.62 17.83,71.43C18.3,71.76 17.9,72.18 17.71,72.29C17.66,72.32 17.68,72.35 17.72,72.36C18.15,72.44 18.51,72 18.53,71.74L18.6,71.78L18.6,73.65C18.6,76.31 21.67,76.68 25.04,78.93C28.41,76.67 31.47,76.31 31.47,73.65L31.47,71.78L31.54,71.74C31.56,71.99 31.91,72.44 32.35,72.36C32.39,72.35 32.41,72.32 32.36,72.29C32.17,72.17 31.76,71.76 32.24,71.43C32.38,71.63 32.67,71.65 32.88,71.57C32.94,71.55 32.93,71.51 32.89,71.5C32.79,71.47 32.63,71.38 32.67,71.12C33.42,70.52 35.39,69.51 37.59,71.33C40.17,73.46 38.28,76.07 37.44,75.24C37.4,75.2 37.4,75.24 37.41,75.29C37.59,76.06 38.57,76 38.68,75.61C38.69,75.58 38.73,75.55 38.74,75.63C39.14,77.23 42.03,76.06 42.24,79.35C42.18,79.36 41.53,79.48 41.27,79.17C41.16,79.04 40.68,78.47 40.09,79.09C40.05,79.13 40.09,79.15 40.11,79.15C40.86,79.13 40.7,79.66 40.67,79.76C40.17,79.35 39.4,79.43 39.45,80.38C39.45,80.45 39.48,80.45 39.51,80.41C39.94,79.86 40.41,80.26 40.44,80.3C40.09,80.35 39.45,80.81 40.04,81.56C40.07,81.59 40.1,81.63 40.11,81.57C40.19,80.69 40.97,80.97 41.13,81.06C41.24,81.12 41.79,81.28 42.16,80.84C42.31,81.51 43.15,81.44 43.23,81.43C43.29,81.43 43.29,81.39 43.24,81.35C42.88,81.11 42.54,80.65 43.08,80.48C43.08,80.48 43.8,81.13 44.38,80.42C44.43,80.36 44.4,80.34 44.37,80.35C44.3,80.37 43.48,80.47 43.54,79.65C43.58,79.08 44,77.14 43.22,76.65C43.17,76.62 43.15,76.59 43.2,76.57C43.98,76.4 44.08,75.85 43.83,75.23C43.8,75.15 43.75,75.17 43.75,75.22C43.69,76.48 41.68,75.88 41.61,74.12C42.69,74.4 44.54,74.02 44.54,72.26C44.54,70.53 42.33,69.6 42.33,68.34C42.33,68.13 42.32,67.26 43.35,67.26C44.19,67.26 44.81,67.89 44.98,68.55C44.99,68.58 45.02,68.59 45.05,68.55C45.17,68.39 45.15,67.74 44.85,67.39C44.82,67.36 44.85,67.29 44.92,67.33C45.01,67.39 45.31,67.48 45.62,67.48C46.31,67.48 46.68,67.1 46.68,66.47C46.68,66.08 46.54,65.88 46.6,65.75C46.63,65.69 46.55,65.65 46.52,65.72C46.42,65.92 46.24,66.42 45.54,66.42L43.85,66.42C41.96,66.42 41.79,67.95 41.79,68.32C41.79,69.87 43.76,70.54 43.76,72.11C43.76,72.48 43.57,73.09 42.56,73.09C42.14,73.09 41.7,72.97 41.44,72.86C41.44,72.86 40.99,70.11 39.65,69.15C39.65,69.15 38.09,69.91 36.54,69.07C35.36,68.43 34.8,68 33.76,68.72C32.72,69.44 31.82,70.21 31.71,70.19L31.46,70.14L31.46,63.95C31.94,63.9 31.97,64.33 31.95,64.44C31.92,64.58 31.77,64.7 32.09,65.19C32.12,65.23 32.15,65.21 32.16,65.17C32.17,65.05 32.24,64.84 32.4,64.84C32.56,64.84 33.3,65.39 33.93,66.02C33.93,66.02 34.29,64.93 35.16,64.59C34.67,64.51 32.55,64 32.55,63.07C32.55,62.76 32.2,62.69 31.97,62.71C31.96,62.68 31.61,61.86 30.97,62.29C30.94,62.31 30.94,62.36 30.98,62.37C31.27,62.44 31.39,62.73 31.4,63.05C30.78,62.86 28.15,62.12 25.03,62.12C23.51,62.12 22.12,62.3 21.01,62.5L21.01,64.64L20.14,64.64L20.14,62.67M14.38,84.65C14.15,84.56 14,84.41 14,84.1L14,82.77C13.62,82.64 12.58,82.24 10.49,82.24C8.76,82.24 8.22,82.63 8.19,82.77L7.73,85.3C7.73,85.3 8.43,84.66 10.94,84.82C13.96,85.01 17.09,86.8 17.09,84.89L17.09,83.77C14.73,83.78 14.38,84.54 14.38,84.65ZM32.97,83.78L32.97,84.9C32.97,86.8 36.1,85.02 39.12,84.83C41.63,84.67 42.33,85.31 42.33,85.31L41.87,82.77C41.85,82.63 41.3,82.24 39.57,82.24C37.49,82.24 36.45,82.64 36.06,82.77L36.06,84.1C36.06,84.4 35.91,84.55 35.68,84.65C35.69,84.54 35.34,83.78 32.97,83.78ZM25.03,82.63C29.9,82.63 34.84,82.88 35.48,83.62C35.53,83.68 35.55,83.62 35.55,83.57L35.55,80.99C35.55,80.24 30.45,79.8 25.02,79.8C19.59,79.8 14.49,80.24 14.49,80.99L14.49,83.57C14.49,83.61 14.51,83.67 14.56,83.62C15.23,82.89 20.17,82.63 25.03,82.63ZM20.69,70.47L20.2,70.34L20.16,70.4L19.59,70.15L20.1,70.15C20.15,70.15 20.15,70.12 20.13,70.1C19.9,69.87 19.69,69.67 19.69,69.67C19.69,69.67 19.92,69.76 20.25,69.88C20.29,69.89 20.3,69.87 20.28,69.84C20.12,69.61 19.9,69.29 19.9,69.29C19.9,69.29 20.36,69.6 20.45,69.66C20.48,69.68 20.5,69.66 20.49,69.63C20.37,69.33 20.23,68.98 20.23,68.98L20.73,69.46C20.75,69.48 20.78,69.47 20.77,69.44C20.72,69.21 20.63,68.79 20.63,68.79L21,69.33C21.02,69.36 21.05,69.35 21.05,69.32C21.05,69.21 21.06,68.73 21.06,68.73C21.06,68.73 21.22,69.09 21.29,69.27C21.31,69.31 21.33,69.31 21.35,69.26C21.37,69.2 21.54,68.8 21.54,68.8L21.56,69.42L21.48,69.44L21.38,70.18C22.11,70.01 23.03,68.75 23.73,68.75C24.57,68.75 24.87,69.73 26.41,69.23C26.8,69.81 26.94,70.31 27.09,71C27.69,71.56 28.52,71.37 28.52,70.78C28.52,69.98 27.65,69.83 27.65,68.99C27.65,68.62 27.91,68.08 28.62,68.08C29,68.08 29.55,68.24 29.87,68.24C30.25,68.24 30.33,67.97 30.37,67.85C30.4,67.77 30.51,67.79 30.5,67.86C30.49,67.94 30.54,68.05 30.54,68.23C30.54,68.76 29.77,68.83 29.68,68.76C29.64,68.73 29.61,68.77 29.64,68.8C29.76,68.89 29.73,69.21 29.59,69.41C29.57,69.43 29.55,69.43 29.55,69.41C29.47,69.03 29.02,68.56 28.63,68.56C28.49,68.56 28.2,68.64 28.2,68.98C28.2,69.45 29.15,69.89 29.15,70.87C29.15,71.89 28.14,72.14 27.12,71.88C27.15,72.85 28.6,73.42 28.63,72.73C28.63,72.68 28.66,72.71 28.67,72.73C28.88,73.03 28.79,73.25 28.51,73.37C28.76,73.48 28.81,73.99 28.88,74.3C28.99,74.76 29.47,74.5 29.5,74.49C29.53,74.47 29.54,74.49 29.52,74.52C29.34,74.99 28.85,74.81 28.85,74.81C28.6,74.99 28.9,75.15 29.13,75.22C29.16,75.23 29.16,75.25 29.14,75.27C28.97,75.33 28.61,75.45 28.43,75.14C28.3,75.46 28.03,75.45 27.93,75.45C27.74,75.45 27.62,75.64 27.66,75.9C27.66,75.92 27.65,75.93 27.63,75.92C27.19,75.63 27.44,75.28 27.62,75.19C27.59,75.17 27.28,75.04 27.15,75.4C27.14,75.43 27.12,75.43 27.11,75.4C26.92,74.88 27.34,74.73 27.64,74.86C27.62,74.79 27.46,74.53 27.06,74.62C27.04,74.63 27.03,74.62 27.04,74.59C27.11,74.43 27.3,74.2 27.67,74.43C27.86,74.55 28.18,74.38 28.21,74.36C27.56,73.07 26.31,74.15 26.02,73.14C26.01,73.12 25.99,73.1 25.97,73.16C25.9,73.37 25.35,73.39 25.25,72.97C25.24,72.94 25.25,72.93 25.28,72.95C25.36,73.03 25.53,73.1 25.76,72.78C25.91,72.56 25.93,72.27 25.93,72.08C25.93,71.3 25.15,69.98 23.93,69.98C23.16,69.98 22.33,70.28 21.71,70.73L22.28,70.86C22.23,71.44 21.67,71.78 21.16,71.63L21.25,70.97C21.16,71 20.94,71.08 20.82,71.25C20.81,71.26 20.79,71.26 20.79,71.24C20.69,70.86 21,70.67 21.09,70.63C21.1,70.62 21.1,70.62 21.08,70.62C20.8,70.61 20.65,70.81 20.6,70.88C20.59,70.89 20.58,70.89 20.58,70.88C20.61,70.8 20.56,70.61 20.69,70.47ZM22.4,74.95C22.18,75.22 21.99,74.96 21.7,74.96C21.43,74.96 21.38,75.19 21.38,75.28C21.38,75.3 21.37,75.3 21.36,75.29C21.05,74.87 21.4,74.64 21.6,74.61C21.57,74.58 21.27,74.38 21.08,74.66C21.07,74.68 21.05,74.67 21.05,74.65C21.04,74.13 21.45,74.09 21.73,74.32C21.78,74.12 21.65,73.99 21.43,73.98C21.4,73.98 21.4,73.96 21.41,73.95C21.5,73.85 21.59,73.81 21.68,73.81C21.97,73.81 22.01,74.18 22.2,74.18C22.48,74.18 22.89,73.8 22.92,73.76C22.91,73.74 22.64,73 22.69,72.56C22.69,72.54 22.68,72.54 22.67,72.55C22.53,72.63 22.19,72.62 22.19,72.2C22.19,72.17 22.2,72.16 22.22,72.19C22.37,72.4 22.62,72.16 22.74,72.02C22.87,71.87 23.59,70.83 24.54,70.83C24.75,70.83 25.02,70.95 25.24,71.1C24.91,71.5 25.24,71.88 25.48,71.83C25.51,71.82 25.51,71.85 25.49,71.86C24.23,72.33 23.67,72.52 23.67,73.58C23.67,74.13 23.86,74.44 24.18,74.36C24.2,74.35 24.21,74.36 24.19,74.38C24.07,74.52 23.94,74.57 23.83,74.57C23.57,74.57 23.52,74.43 23.38,74.43C23.24,74.43 22.77,74.71 22.77,74.94C22.77,75.03 22.83,75.15 22.99,75.25C23,75.26 22.99,75.27 22.99,75.27C22.85,75.27 22.48,75.3 22.4,74.95ZM25.71,64.7C25.32,64.68 25.06,64.76 25.08,64.89C25.27,65.09 25.52,65.07 25.71,64.7ZM24.26,65.67C24.54,65.6 24.84,65.63 24.88,65.64C24.92,65.65 24.92,65.72 24.87,65.73C24.29,65.8 24.26,66.07 23.89,66.07C23.65,66.07 23.38,65.82 23.48,65.46C23.49,65.41 23.53,65.41 23.54,65.46C23.58,65.62 23.81,65.79 24.26,65.67ZM16.73,78.53C17.11,79.02 17.48,78.56 17.99,78.56C18.24,78.56 18.54,78.64 18.59,79.14C18.59,79.17 18.61,79.17 18.64,79.14C19.19,78.39 18.56,77.97 18.2,77.91C18.28,77.84 18.81,77.51 19.16,78C19.18,78.03 19.22,78.02 19.22,77.98C19.22,77.03 18.51,76.96 17.99,77.37C17.89,77 18.17,76.76 18.53,76.76C18.57,76.76 18.59,76.73 18.57,76.71C17.93,76.03 17.46,76.89 17.35,77.02C17.1,77.36 16.19,76.72 15.82,76.34C15.82,76.34 16.62,75.5 16.62,74.73C16.62,74.68 16.61,74.62 16.61,74.59C16.61,74.57 16.62,74.56 16.64,74.57C16.72,74.62 16.83,74.65 16.94,74.65C17.12,74.65 17.47,74.59 17.47,73.94C17.47,73.89 17.45,73.89 17.43,73.92C17.33,74.06 17.23,74.09 17.15,74.09C16.5,74.09 15.15,71.93 13.55,71.93C13.13,71.93 12.34,72.23 11.95,72.66C12.14,72.77 12.18,73.01 12.16,73.18C12.13,73.45 11.91,73.59 11.69,73.65C11.65,73.66 11.65,73.69 11.69,73.71C12.5,74.02 13.96,74.57 14.3,74.86C14.69,75.2 14.62,75.84 14.39,76.73C14.17,77.58 13.7,77.47 13.52,77.44C13.49,77.44 13.49,77.45 13.5,77.47C13.71,77.73 13.96,77.82 14.18,77.82C14.6,77.82 14.76,77.56 14.97,77.56C15.33,77.56 16.1,78.08 16.1,78.48C16.1,78.7 15.93,78.91 15.7,79.05C15.69,79.06 15.69,79.08 15.71,79.08C15.88,79.11 16.59,79.17 16.73,78.53ZM34.36,79.08C34.38,79.08 34.39,79.06 34.37,79.05C34.15,78.9 33.97,78.7 33.97,78.48C33.97,78.08 34.73,77.56 35.1,77.56C35.32,77.56 35.47,77.82 35.89,77.82C36.11,77.82 36.36,77.73 36.57,77.47C36.59,77.45 36.58,77.43 36.55,77.44C36.38,77.47 35.9,77.58 35.68,76.73C35.45,75.84 35.37,75.2 35.77,74.86C36.1,74.57 37.57,74.02 38.38,73.71C38.42,73.69 38.42,73.66 38.38,73.65C38.16,73.59 37.94,73.45 37.91,73.18C37.89,73.01 37.93,72.78 38.12,72.66C37.72,72.23 36.93,71.93 36.51,71.93C34.91,71.93 33.56,74.09 32.91,74.09C32.83,74.09 32.72,74.06 32.63,73.92C32.61,73.89 32.59,73.89 32.59,73.94C32.59,74.59 32.94,74.65 33.12,74.65C33.22,74.65 33.34,74.62 33.42,74.57C33.44,74.56 33.45,74.57 33.45,74.59C33.45,74.62 33.44,74.68 33.44,74.73C33.44,75.5 34.24,76.34 34.24,76.34C33.88,76.72 32.97,77.35 32.71,77.02C32.6,76.88 32.13,76.03 31.49,76.71C31.47,76.74 31.48,76.76 31.53,76.76C31.89,76.76 32.17,77 32.07,77.37C31.55,76.96 30.84,77.03 30.84,77.98C30.84,78.02 30.88,78.03 30.9,78C31.24,77.51 31.78,77.84 31.85,77.91C31.49,77.96 30.87,78.39 31.41,79.14C31.43,79.17 31.45,79.17 31.46,79.14C31.52,78.65 31.82,78.56 32.06,78.56C32.56,78.56 32.93,79.02 33.32,78.53C33.48,79.17 34.19,79.11 34.36,79.08ZM21.45,66.61C21.4,66.68 21.23,66.61 21.17,66.58C21.16,66.57 21.15,66.58 21.16,66.59C21.2,66.68 21.36,66.95 21.6,66.95C21.71,66.95 21.87,66.89 21.91,66.81C21.91,66.81 22.85,67.12 23.31,67.24C23.13,67.48 23.02,67.77 22.99,68.08C22.62,67.85 21.12,67.05 21.12,67.05L20.66,67.69C20.58,67.79 20.21,67.52 20.29,67.42L20.64,66.93C20.52,66.81 20.24,66.88 20.16,66.91C20.15,66.91 20.14,66.91 20.15,66.89C20.2,66.79 20.37,66.5 20.81,66.63C20.81,66.36 20.41,66.45 20.3,66.48C20.29,66.48 20.28,66.48 20.29,66.47C20.4,66.35 20.73,66.09 21.09,66.31L21.25,66.09L20.93,65.75L21.13,65.47L21.36,65.77L23.09,63.4C23.13,63.34 23.48,63.24 23.6,63.21C23.61,63.34 23.63,63.7 23.59,63.76L21.89,66.15L22.25,66.27L22.05,66.55L21.63,66.35L21.45,66.61ZM27.52,66.22C27.52,66.44 27.65,66.76 27.94,66.66C27.95,66.65 27.97,66.66 27.96,66.67C27.92,66.91 27.48,67.13 27.29,66.85C27.11,67.22 27.16,67.57 27.53,67.77C27.55,67.78 27.55,67.81 27.53,67.83C27.3,67.99 26.95,67.96 26.79,67.64C26.48,67.87 26.52,68.37 26.71,68.54C26.71,68.54 25.85,69.05 25.07,68.69C24.55,68.44 24.13,68.12 23.46,68.18C23.55,67.24 24.02,67 24.88,66.86C25.57,66.75 25.65,66.43 25.56,66.19C25.33,66.13 24.9,66.34 24.9,66.34C24.82,66.21 24.93,66.08 24.93,66.08C24.89,66.03 24.87,65.86 24.87,65.86C25.35,65.86 25.44,65.75 25.44,65.75C25.53,65.25 25.02,65.2 24.63,65.47C24.45,65.31 24.48,65.1 24.48,65.1C24.43,65.07 24.39,64.99 24.39,64.95C24.39,64.83 24.96,64.51 25.11,64.47C25.15,64.3 25.35,64.07 25.96,64.13C26.03,63.97 25.91,63.38 25.84,63.23C25.82,63.18 25.85,63.16 25.9,63.19C26.11,63.32 26.32,63.82 26.47,63.83C26.47,63.83 27.15,63.47 27.18,63.49C27.21,63.51 27.31,64.27 27.31,64.27C27.4,64.38 27.93,64.27 28.16,64.37C28.22,64.4 28.22,64.44 28.16,64.45C27.99,64.48 27.44,64.72 27.35,64.87C27.67,65.34 27.52,66.03 27.52,66.22Z" style="fill:white;fill-rule:nonzero;"/>
        </g>
        <g id="KNMI--EN-" serif:id="KNMI (EN)" transform="matrix(1.42816,0,0,1.42816,-83.5325,45.4013)">
            <path d="M131.408,45.857C132.058,46.014 132.73,46.081 133.515,46.081C134.5,46.081 135.33,45.925 136.069,45.7L136.069,45.208L134.657,44.849L134.657,40.121L135.71,40.121L138.668,44.603C139.475,45.812 140.102,46.193 141.066,46.193C141.783,46.193 142.343,45.992 142.768,45.7L142.768,45.275C141.962,45.006 141.222,44.468 140.685,43.751L137.525,39.516C139.52,38.911 140.752,37.455 140.752,35.237C140.752,32.772 139.139,31.45 135.755,31.45C133.985,31.45 132.708,31.54 131.296,31.786L131.296,32.279L132.708,32.727L132.708,43.729C132.708,44.737 132.282,45.185 131.408,45.432L131.408,45.857ZM134.657,39.046L134.657,32.772C134.949,32.727 135.33,32.682 135.621,32.682C137.548,32.682 138.713,33.735 138.713,35.573C138.713,37.903 137.279,39.046 135.531,39.046L134.657,39.046Z" style="fill-rule:nonzero;"/>
            <path d="M143.508,41.04C143.508,44.311 145.704,46.216 148.415,46.216C151.081,46.216 153.658,43.886 153.658,40.188C153.658,37.074 151.529,35.013 148.773,35.013C146.017,35.013 143.508,37.365 143.508,41.04ZM145.547,40.816C145.547,37.858 147.071,36.312 148.617,36.312C150.207,36.312 151.619,37.769 151.619,40.39C151.619,43.46 150.051,44.916 148.549,44.916C146.958,44.916 145.547,43.527 145.547,40.816Z" style="fill-rule:nonzero;"/>
            <path d="M158.162,46.193C157.243,48.613 155.876,49.689 154.935,49.689C154.554,49.689 154.241,49.666 153.927,49.599C153.927,50.944 154.397,51.347 155.294,51.347C156.436,51.347 158.207,49.89 159.977,44.961L163.136,36.223L163.696,35.73L163.696,35.192L160.335,35.192L160.335,35.73L161.59,36.335L159.461,43.101L159.439,43.101L157.064,36.267L158.274,35.73L158.274,35.192L154.151,35.192L154.151,35.73L155.002,36.379L158.543,45.185L158.162,46.193Z" style="fill-rule:nonzero;"/>
            <path d="M164.234,43.706C164.234,45.14 165.399,46.193 167.08,46.193C168.267,46.193 169.477,45.723 170.104,45.118C170.373,45.588 170.709,45.947 171.135,46.216C171.718,45.925 172.323,45.476 172.659,45.073C172.255,44.759 171.919,44.334 171.762,43.93L171.83,40.3C171.852,39.651 171.919,38.53 171.919,38.037C171.919,36.178 170.575,35.035 168.312,35.035C165.69,35.035 164.637,35.864 164.637,37.298C164.637,37.545 164.66,37.746 164.704,37.97C165.645,37.029 166.833,36.514 168.065,36.514C169.477,36.514 170.06,37.029 170.06,39.449L170.06,40.054C166.385,40.054 164.234,41.735 164.234,43.706ZM166.161,43.37C166.161,42.16 167.528,41.107 170.06,41.107L170.06,44.244C169.499,44.58 168.603,44.849 167.909,44.849C166.766,44.849 166.161,44.266 166.161,43.37Z" style="fill-rule:nonzero;"/>
            <path d="M174.586,45.857C175.101,46.014 175.728,46.059 176.266,46.059C177.386,46.059 178.103,45.947 178.865,45.678L178.865,45.252L177.611,44.916L177.611,31.024L177.723,29.769L177.006,29.769C176.378,29.769 175.325,29.881 174.317,30.173L174.317,30.666L175.773,31.271L175.773,44.266C175.773,44.804 175.168,45.252 174.586,45.476L174.586,45.857Z" style="fill-rule:nonzero;"/>
            <path d="M185.005,45.857C185.542,46.014 186.147,46.081 187.044,46.081C187.783,46.081 188.433,45.947 189.083,45.7L189.083,45.208L187.716,44.849L187.716,34.497L187.738,34.475L194.819,46.149L195.872,45.902L195.872,34.161C195.872,32.772 196.163,32.369 197.149,32.055L197.149,31.652C196.566,31.472 196.163,31.405 195.267,31.405C194.505,31.405 193.766,31.562 193.026,31.786L193.026,32.257L194.46,32.615L194.46,41.712L194.415,41.735L188.186,31.495L187.357,31.495C186.64,31.495 185.744,31.54 184.893,31.652L184.893,32.301L186.304,32.682L186.304,43.46C186.304,44.67 185.991,45.163 185.005,45.432L185.005,45.857Z" style="fill-rule:nonzero;"/>
            <path d="M198.65,41.062C198.65,44.199 200.734,46.193 203.288,46.193C205.663,46.193 207.142,45.252 207.142,44.244C207.142,44.02 207.097,43.774 207.053,43.661C206.201,44.244 204.991,44.625 203.893,44.625C202.034,44.625 200.577,43.169 200.577,40.659L207.187,40.659C207.209,40.099 207.209,39.651 207.209,39.225C207.209,36.648 205.753,35.035 203.333,35.035C201.003,35.035 198.65,37.164 198.65,41.062ZM200.622,39.494C200.622,37.724 201.922,36.245 203.154,36.245C204.476,36.245 205.417,37.298 205.417,39.494L200.622,39.494Z" style="fill-rule:nonzero;"/>
            <path d="M209.898,43.034C209.898,45.208 210.772,46.149 212.565,46.149C214.111,46.149 214.895,45.476 214.985,44.154L214.76,44.065C214.312,44.423 213.752,44.647 213.102,44.647C212.273,44.647 211.736,44.02 211.736,42.205C211.736,41.376 211.736,40.525 211.758,39.583L211.803,36.76L214.671,36.76L214.828,35.55L211.87,35.55L211.96,33.534L211.22,33.623L208.8,36.021L208.8,36.76L210.033,36.76L209.965,39.74C209.943,40.771 209.898,41.959 209.898,43.034Z" style="fill-rule:nonzero;"/>
            <path d="M215.948,45.857C216.463,46.014 217.113,46.059 217.628,46.059C218.771,46.059 219.466,45.947 220.228,45.678L220.228,45.252L218.973,44.916L218.973,37.388C219.488,37.007 220.362,36.693 221.236,36.693C222.625,36.693 223.521,37.522 223.521,39.718L223.521,43.998C223.521,44.804 223.253,45.23 222.715,45.476L222.715,45.857C223.14,46.014 223.701,46.059 224.149,46.059C225.112,46.059 225.896,45.925 226.524,45.678L226.524,45.252L225.359,44.916L225.359,38.642C225.359,36.335 224.126,35.147 222.222,35.147C220.81,35.147 219.78,35.595 218.973,36.379L218.973,31.024L219.085,29.769L218.368,29.769C217.606,29.769 216.687,29.881 215.679,30.173L215.679,30.666L217.136,31.271L217.136,44.266C217.136,44.804 216.553,45.252 215.948,45.476L215.948,45.857Z" style="fill-rule:nonzero;"/>
            <path d="M228.07,41.062C228.07,44.199 230.154,46.193 232.708,46.193C235.083,46.193 236.562,45.252 236.562,44.244C236.562,44.02 236.517,43.774 236.472,43.661C235.621,44.244 234.411,44.625 233.313,44.625C231.453,44.625 229.997,43.169 229.997,40.659L236.607,40.659C236.629,40.099 236.629,39.651 236.629,39.225C236.629,36.648 235.173,35.035 232.753,35.035C230.423,35.035 228.07,37.164 228.07,41.062ZM230.042,39.494C230.042,37.724 231.341,36.245 232.574,36.245C233.896,36.245 234.837,37.298 234.837,39.494L230.042,39.494Z" style="fill-rule:nonzero;"/>
            <path d="M238.422,45.857C238.937,46.014 239.564,46.059 240.214,46.059C241.491,46.059 242.231,45.947 242.993,45.678L242.993,45.252L241.447,44.916L241.447,37.791C242.074,37.186 242.724,36.872 243.418,36.872C243.889,36.872 244.382,37.052 244.808,37.388C245.032,36.962 245.166,36.469 245.166,36.043C245.166,35.416 244.785,35.08 244.001,35.08C243.239,35.08 242.634,35.416 242.029,36.066L241.402,36.76L241.379,36.76L241.379,35.192L240.842,35.192C240.192,35.192 239.184,35.304 238.153,35.595L238.153,36.088L239.609,36.693L239.609,44.266C239.609,44.804 239.004,45.252 238.422,45.476L238.422,45.857Z" style="fill-rule:nonzero;"/>
            <path d="M245.95,45.857C246.466,46.014 247.093,46.059 247.631,46.059C248.751,46.059 249.468,45.947 250.23,45.678L250.23,45.252L248.975,44.916L248.975,31.024L249.087,29.769L248.37,29.769C247.743,29.769 246.69,29.881 245.681,30.173L245.681,30.666L247.138,31.271L247.138,44.266C247.138,44.804 246.533,45.252 245.95,45.476L245.95,45.857Z" style="fill-rule:nonzero;"/>
            <path d="M251.642,43.706C251.642,45.14 252.807,46.193 254.487,46.193C255.675,46.193 256.885,45.723 257.512,45.118C257.781,45.588 258.117,45.947 258.543,46.216C259.125,45.925 259.73,45.476 260.066,45.073C259.663,44.759 259.327,44.334 259.17,43.93L259.237,40.3C259.26,39.651 259.327,38.53 259.327,38.037C259.327,36.178 257.983,35.035 255.719,35.035C253.098,35.035 252.045,35.864 252.045,37.298C252.045,37.545 252.067,37.746 252.112,37.97C253.053,37.029 254.241,36.514 255.473,36.514C256.885,36.514 257.467,37.029 257.467,39.449L257.467,40.054C253.793,40.054 251.642,41.735 251.642,43.706ZM253.568,43.37C253.568,42.16 254.935,41.107 257.467,41.107L257.467,44.244C256.907,44.58 256.011,44.849 255.316,44.849C254.173,44.849 253.568,44.266 253.568,43.37Z" style="fill-rule:nonzero;"/>
            <path d="M261.993,45.857C262.509,46.014 263.136,46.059 263.674,46.059C264.794,46.059 265.511,45.947 266.273,45.678L266.273,45.252L265.018,44.916L265.018,37.388C265.511,37.007 266.407,36.693 267.326,36.693C268.648,36.693 269.567,37.522 269.567,39.718L269.567,43.998C269.567,44.804 269.32,45.23 268.76,45.476L268.76,45.857C269.208,46.014 269.746,46.059 270.216,46.059C271.18,46.059 271.964,45.925 272.569,45.678L272.569,45.252L271.404,44.916L271.404,38.642C271.404,36.335 270.127,35.147 268.267,35.147C266.968,35.147 265.713,35.64 264.951,36.402L264.951,35.192L264.413,35.192C263.763,35.192 262.755,35.304 261.724,35.595L261.724,36.088L263.181,36.693L263.181,44.266C263.181,44.804 262.576,45.252 261.993,45.476L261.993,45.857Z" style="fill-rule:nonzero;"/>
            <path d="M274.115,41.286C274.115,44.266 275.93,46.149 278.193,46.149C279.112,46.149 280.344,45.611 281.061,44.871C281.285,45.342 281.689,45.857 282.137,46.216C282.764,45.88 283.257,45.566 283.705,45.163C283.279,44.782 283.011,44.311 282.854,43.863L282.854,31.024L282.988,29.769L282.271,29.769C281.621,29.769 280.523,29.881 279.493,30.173L279.493,30.666L281.016,31.271L281.016,35.214C280.658,35.125 280.008,35.057 279.47,35.057C276.558,35.057 274.115,37.253 274.115,41.286ZM278.753,44.692C277.342,44.692 276.065,43.37 276.065,40.928C276.065,37.813 277.499,36.312 279.403,36.312C280.008,36.312 280.658,36.424 281.039,36.559L281.039,43.975C280.523,44.401 279.605,44.692 278.753,44.692Z" style="fill-rule:nonzero;"/>
            <path d="M285.408,44.356C285.408,45.566 286.282,46.193 288.254,46.193C290.763,46.193 292.421,44.625 292.421,42.9C292.421,41.578 291.816,40.749 290.203,40.121L288.993,39.651C287.649,39.135 287.245,38.687 287.245,37.881C287.245,37.119 287.918,36.491 289.352,36.491C290.203,36.491 291.189,36.85 291.906,37.343C291.973,37.029 292.018,36.738 292.018,36.402C292.018,35.55 291.301,35.013 289.508,35.013C287.178,35.013 285.61,36.536 285.61,38.306C285.61,39.583 286.327,40.525 287.626,41.085L288.747,41.555C290.225,42.183 290.674,42.676 290.674,43.46C290.674,44.244 290.024,44.849 288.769,44.849C287.581,44.849 286.618,44.378 285.61,43.437C285.475,43.684 285.408,44.042 285.408,44.356Z" style="fill-rule:nonzero;"/>
            <path d="M130.759,72.745C131.319,72.88 131.969,72.969 132.484,72.969C133.559,72.969 134.097,72.88 135.061,72.588L135.061,72.095L133.604,71.714L134.299,60.489L134.321,60.466L138.354,72.992L139.228,72.88L143.217,60.444L143.261,60.444L143.822,70.616C143.866,71.535 143.441,72.095 142.5,72.319L142.5,72.745C143.284,72.924 143.934,72.969 144.964,72.969C145.838,72.969 146.6,72.835 147.138,72.588L147.138,72.095L145.838,71.849L144.852,59.525L146.241,59.189L146.241,58.539C145.345,58.405 144.337,58.383 143.53,58.383L142.567,58.383L139.161,69.25L139.139,69.25L135.621,58.383L134.814,58.383C134.008,58.383 132.775,58.405 131.767,58.539L131.767,59.189L133.066,59.57L132.081,71.02C132.013,71.692 131.588,72.095 130.759,72.342L130.759,72.745Z" style="fill-rule:nonzero;"/>
            <path d="M148.617,67.95C148.617,71.087 150.7,73.081 153.255,73.081C155.63,73.081 157.109,72.14 157.109,71.132C157.109,70.908 157.064,70.661 157.019,70.549C156.168,71.132 154.958,71.513 153.86,71.513C152,71.513 150.544,70.056 150.544,67.547L157.153,67.547C157.176,66.987 157.176,66.538 157.176,66.113C157.176,63.536 155.719,61.923 153.3,61.923C150.969,61.923 148.617,64.051 148.617,67.95ZM150.588,66.382C150.588,64.612 151.888,63.133 153.12,63.133C154.442,63.133 155.383,64.186 155.383,66.382L150.588,66.382Z" style="fill-rule:nonzero;"/>
            <path d="M159.865,69.922C159.865,72.095 160.738,73.036 162.531,73.036C164.077,73.036 164.861,72.364 164.951,71.042L164.727,70.953C164.279,71.311 163.719,71.535 163.069,71.535C162.24,71.535 161.702,70.908 161.702,69.093C161.702,68.264 161.702,67.412 161.724,66.471L161.769,63.648L164.637,63.648L164.794,62.438L161.836,62.438L161.926,60.422L161.187,60.511L158.767,62.909L158.767,63.648L159.999,63.648L159.932,66.628C159.909,67.659 159.865,68.846 159.865,69.922Z" style="fill-rule:nonzero;"/>
            <path d="M165.713,67.95C165.713,71.087 167.797,73.081 170.351,73.081C172.726,73.081 174.205,72.14 174.205,71.132C174.205,70.908 174.16,70.661 174.115,70.549C173.264,71.132 172.054,71.513 170.956,71.513C169.096,71.513 167.64,70.056 167.64,67.547L174.25,67.547C174.272,66.987 174.272,66.538 174.272,66.113C174.272,63.536 172.816,61.923 170.396,61.923C168.065,61.923 165.713,64.051 165.713,67.95ZM167.684,66.382C167.684,64.612 168.984,63.133 170.216,63.133C171.538,63.133 172.479,64.186 172.479,66.382L167.684,66.382Z" style="fill-rule:nonzero;"/>
            <path d="M175.908,67.928C175.908,71.199 178.103,73.104 180.815,73.104C183.481,73.104 186.058,70.773 186.058,67.076C186.058,63.962 183.929,61.9 181.173,61.9C178.417,61.9 175.908,64.253 175.908,67.928ZM177.947,67.704C177.947,64.746 179.47,63.2 181.016,63.2C182.607,63.2 184.019,64.656 184.019,67.278C184.019,70.348 182.45,71.804 180.949,71.804C179.358,71.804 177.947,70.415 177.947,67.704Z" style="fill-rule:nonzero;"/>
            <path d="M188.007,72.745C188.522,72.902 189.15,72.947 189.8,72.947C191.077,72.947 191.816,72.835 192.578,72.566L192.578,72.14L191.032,71.804L191.032,64.679C191.659,64.074 192.309,63.76 193.004,63.76C193.474,63.76 193.967,63.939 194.393,64.275C194.617,63.85 194.751,63.357 194.751,62.931C194.751,62.304 194.371,61.968 193.586,61.968C192.825,61.968 192.22,62.304 191.615,62.953L190.987,63.648L190.965,63.648L190.965,62.08L190.427,62.08C189.777,62.08 188.769,62.192 187.738,62.483L187.738,62.976L189.195,63.581L189.195,71.154C189.195,71.692 188.59,72.14 188.007,72.364L188.007,72.745Z" style="fill-rule:nonzero;"/>
            <path d="M195.379,67.928C195.379,71.199 197.575,73.104 200.286,73.104C202.952,73.104 205.529,70.773 205.529,67.076C205.529,63.962 203.4,61.9 200.644,61.9C197.888,61.9 195.379,64.253 195.379,67.928ZM197.418,67.704C197.418,64.746 198.941,63.2 200.488,63.2C202.078,63.2 203.49,64.656 203.49,67.278C203.49,70.348 201.922,71.804 200.42,71.804C198.829,71.804 197.418,70.415 197.418,67.704Z" style="fill-rule:nonzero;"/>
            <path d="M207.478,72.745C207.994,72.902 208.621,72.947 209.159,72.947C210.279,72.947 210.996,72.835 211.758,72.566L211.758,72.14L210.503,71.804L210.503,57.912L210.615,56.657L209.898,56.657C209.271,56.657 208.218,56.769 207.209,57.061L207.209,57.553L208.666,58.158L208.666,71.154C208.666,71.692 208.061,72.14 207.478,72.364L207.478,72.745Z" style="fill-rule:nonzero;"/>
            <path d="M213.326,67.928C213.326,71.199 215.522,73.104 218.233,73.104C220.9,73.104 223.477,70.773 223.477,67.076C223.477,63.962 221.348,61.9 218.592,61.9C215.836,61.9 213.326,64.253 213.326,67.928ZM215.365,67.704C215.365,64.746 216.889,63.2 218.435,63.2C220.026,63.2 221.438,64.656 221.438,67.278C221.438,70.348 219.869,71.804 218.368,71.804C216.777,71.804 215.365,70.415 215.365,67.704Z" style="fill-rule:nonzero;"/>
            <path d="M225.762,71.49C225.762,72.342 226.255,72.947 227.084,73.238L227.084,73.26C225.874,73.597 224.955,74.56 224.955,75.748C224.955,77.226 226.412,78.369 229.235,78.369C232.35,78.369 234.702,76.577 234.702,74.448C234.702,72.79 233.649,71.916 231.767,71.938L228.63,71.961C227.756,71.961 227.196,71.602 227.196,70.93C227.196,70.527 227.577,70.056 227.913,69.855C228.294,70.011 228.809,70.124 229.302,70.124C231.722,70.124 233.851,68.353 233.851,65.754C233.851,64.836 233.313,63.872 232.574,63.312L232.574,63.29C233.447,63.29 234.254,63.379 234.971,63.536L235.128,62.057C234.904,61.99 234.545,61.923 234.164,61.923C233.447,61.923 232.596,62.259 232.193,62.64C231.812,62.281 230.691,61.9 229.773,61.9C227.33,61.9 225.314,63.827 225.314,66.337C225.314,67.883 226.322,69.048 227.33,69.451L227.33,69.474C226.479,69.765 225.762,70.639 225.762,71.49ZM229.437,69.003C228.339,69.003 227.286,68.085 227.286,66.202C227.286,64.253 228.361,63.043 229.638,63.043C230.826,63.043 231.879,63.939 231.879,65.821C231.879,68.017 230.803,69.003 229.437,69.003ZM226.658,75.367C226.658,74.605 227.151,73.865 227.801,73.574L231.408,73.574C232.484,73.574 233.067,74.067 233.067,74.941C233.067,76.016 231.655,77.07 229.526,77.07C227.644,77.07 226.658,76.285 226.658,75.367Z" style="fill-rule:nonzero;"/>
            <path d="M238.175,60.018C238.892,60.018 239.43,59.413 239.43,58.629C239.43,57.89 238.892,57.419 238.265,57.419C237.481,57.419 236.988,58.046 236.988,58.741C236.988,59.48 237.503,60.018 238.175,60.018ZM236.047,72.745C236.562,72.902 237.212,72.947 237.727,72.947C238.87,72.947 239.564,72.835 240.326,72.566L240.326,72.14L239.071,71.804L239.071,63.29L239.184,62.08L238.467,62.08C237.839,62.08 236.808,62.214 235.8,62.505L235.8,62.976L237.234,63.581L237.234,71.154C237.234,71.692 236.652,72.14 236.047,72.364L236.047,72.745Z" style="fill-rule:nonzero;"/>
            <path d="M241.94,67.928C241.94,71.042 244.001,73.081 246.443,73.081C248.572,73.081 249.715,72.252 249.715,71.199C249.715,70.997 249.67,70.773 249.603,70.639C248.908,71.154 247.922,71.535 247.048,71.535C245.3,71.535 243.889,70.191 243.889,67.524C243.889,64.925 245.211,63.402 246.757,63.402C247.698,63.402 248.505,63.76 249.356,64.432C249.513,64.074 249.625,63.693 249.625,63.267C249.625,62.528 249.02,61.945 247.205,61.945C244.247,61.945 241.94,64.253 241.94,67.928Z" style="fill-rule:nonzero;"/>
            <path d="M250.857,70.594C250.857,72.028 252.022,73.081 253.703,73.081C254.89,73.081 256.1,72.611 256.728,72.006C256.997,72.476 257.333,72.835 257.758,73.104C258.341,72.812 258.946,72.364 259.282,71.961C258.879,71.647 258.543,71.221 258.386,70.818L258.453,67.188C258.475,66.538 258.543,65.418 258.543,64.925C258.543,63.065 257.198,61.923 254.935,61.923C252.314,61.923 251.261,62.752 251.261,64.186C251.261,64.432 251.283,64.634 251.328,64.858C252.269,63.917 253.456,63.402 254.689,63.402C256.1,63.402 256.683,63.917 256.683,66.337L256.683,66.942C253.008,66.942 250.857,68.622 250.857,70.594ZM252.784,70.258C252.784,69.048 254.151,67.995 256.683,67.995L256.683,71.132C256.123,71.468 255.227,71.737 254.532,71.737C253.389,71.737 252.784,71.154 252.784,70.258Z" style="fill-rule:nonzero;"/>
            <path d="M261.209,72.745C261.724,72.902 262.352,72.947 262.89,72.947C264.01,72.947 264.727,72.835 265.489,72.566L265.489,72.14L264.234,71.804L264.234,57.912L264.346,56.657L263.629,56.657C263.002,56.657 261.948,56.769 260.94,57.061L260.94,57.553L262.397,58.158L262.397,71.154C262.397,71.692 261.792,72.14 261.209,72.364L261.209,72.745Z" style="fill-rule:nonzero;"/>
            <path d="M271.628,72.745C272.233,72.902 272.816,72.969 273.712,72.969C274.675,72.969 275.549,72.812 276.289,72.588L276.289,72.095L274.877,71.737L274.877,60.623C274.877,59.727 275.213,59.279 276.177,59.01L276.177,58.584C275.549,58.427 274.922,58.36 274.093,58.36C273.241,58.36 272.435,58.472 271.516,58.719L271.516,59.212L272.928,59.57L272.928,70.594C272.928,71.692 272.39,72.095 271.628,72.319L271.628,72.745Z" style="fill-rule:nonzero;"/>
            <path d="M278.305,72.745C278.821,72.902 279.448,72.947 279.986,72.947C281.106,72.947 281.823,72.835 282.585,72.566L282.585,72.14L281.33,71.804L281.33,64.275C281.823,63.895 282.719,63.581 283.638,63.581C284.96,63.581 285.879,64.41 285.879,66.606L285.879,70.885C285.879,71.692 285.632,72.118 285.072,72.364L285.072,72.745C285.52,72.902 286.058,72.947 286.528,72.947C287.492,72.947 288.276,72.812 288.881,72.566L288.881,72.14L287.716,71.804L287.716,65.53C287.716,63.222 286.439,62.035 284.579,62.035C283.279,62.035 282.025,62.528 281.263,63.29L281.263,62.08L280.725,62.08C280.075,62.08 279.067,62.192 278.036,62.483L278.036,62.976L279.493,63.581L279.493,71.154C279.493,71.692 278.888,72.14 278.305,72.364L278.305,72.745Z" style="fill-rule:nonzero;"/>
            <path d="M290.293,71.244C290.293,72.454 291.167,73.081 293.138,73.081C295.648,73.081 297.306,71.513 297.306,69.787C297.306,68.465 296.701,67.636 295.088,67.009L293.878,66.538C292.533,66.023 292.13,65.575 292.13,64.768C292.13,64.007 292.802,63.379 294.236,63.379C295.088,63.379 296.074,63.738 296.791,64.231C296.858,63.917 296.903,63.626 296.903,63.29C296.903,62.438 296.186,61.9 294.393,61.9C292.063,61.9 290.494,63.424 290.494,65.194C290.494,66.471 291.211,67.412 292.511,67.972L293.631,68.443C295.11,69.07 295.558,69.563 295.558,70.348C295.558,71.132 294.908,71.737 293.654,71.737C292.466,71.737 291.503,71.266 290.494,70.325C290.36,70.572 290.293,70.93 290.293,71.244Z" style="fill-rule:nonzero;"/>
            <path d="M299.815,69.922C299.815,72.095 300.689,73.036 302.482,73.036C304.028,73.036 304.812,72.364 304.902,71.042L304.678,70.953C304.229,71.311 303.669,71.535 303.02,71.535C302.191,71.535 301.653,70.908 301.653,69.093C301.653,68.264 301.653,67.412 301.675,66.471L301.72,63.648L304.588,63.648L304.745,62.438L301.787,62.438L301.877,60.422L301.137,60.511L298.718,62.909L298.718,63.648L299.95,63.648L299.883,66.628C299.86,67.659 299.815,68.846 299.815,69.922Z" style="fill-rule:nonzero;"/>
            <path d="M307.994,60.018C308.711,60.018 309.249,59.413 309.249,58.629C309.249,57.89 308.711,57.419 308.083,57.419C307.299,57.419 306.806,58.046 306.806,58.741C306.806,59.48 307.322,60.018 307.994,60.018ZM305.865,72.745C306.381,72.902 307.03,72.947 307.546,72.947C308.688,72.947 309.383,72.835 310.145,72.566L310.145,72.14L308.89,71.804L308.89,63.29L309.002,62.08L308.285,62.08C307.658,62.08 306.627,62.214 305.619,62.505L305.619,62.976L307.053,63.581L307.053,71.154C307.053,71.692 306.47,72.14 305.865,72.364L305.865,72.745Z" style="fill-rule:nonzero;"/>
            <path d="M312.856,69.922C312.856,72.095 313.73,73.036 315.522,73.036C317.068,73.036 317.853,72.364 317.942,71.042L317.718,70.953C317.27,71.311 316.71,71.535 316.06,71.535C315.231,71.535 314.693,70.908 314.693,69.093C314.693,68.264 314.693,67.412 314.716,66.471L314.761,63.648L317.629,63.648L317.785,62.438L314.828,62.438L314.917,60.422L314.178,60.511L311.758,62.909L311.758,63.648L312.99,63.648L312.923,66.628C312.901,67.659 312.856,68.846 312.856,69.922Z" style="fill-rule:nonzero;"/>
            <path d="M319.869,69.317C319.869,71.894 321.057,72.992 322.961,72.992C324.351,72.992 325.628,72.319 326.188,71.804C326.389,72.319 326.793,72.79 327.241,73.104C327.801,72.835 328.428,72.409 328.765,72.05C328.406,71.67 328.07,71.266 327.913,70.885L327.913,63.312L328.048,62.057L327.308,62.057C326.681,62.057 325.807,62.192 324.776,62.483L324.776,62.953L326.076,63.581L326.076,70.841C325.56,71.177 324.709,71.49 323.88,71.49C322.446,71.49 321.707,70.728 321.707,68.376L321.707,63.312L321.841,62.057L321.102,62.057C320.474,62.057 319.6,62.192 318.592,62.483L318.592,62.953L319.869,63.581L319.869,69.317Z" style="fill-rule:nonzero;"/>
            <path d="M331.7,69.922C331.7,72.095 332.574,73.036 334.366,73.036C335.912,73.036 336.696,72.364 336.786,71.042L336.562,70.953C336.114,71.311 335.554,71.535 334.904,71.535C334.075,71.535 333.537,70.908 333.537,69.093C333.537,68.264 333.537,67.412 333.56,66.471L333.604,63.648L336.472,63.648L336.629,62.438L333.672,62.438L333.761,60.422L333.022,60.511L330.602,62.909L330.602,63.648L331.834,63.648L331.767,66.628C331.745,67.659 331.7,68.846 331.7,69.922Z" style="fill-rule:nonzero;"/>
            <path d="M337.548,67.95C337.548,71.087 339.632,73.081 342.186,73.081C344.561,73.081 346.04,72.14 346.04,71.132C346.04,70.908 345.995,70.661 345.95,70.549C345.099,71.132 343.889,71.513 342.791,71.513C340.931,71.513 339.475,70.056 339.475,67.547L346.085,67.547C346.107,66.987 346.107,66.538 346.107,66.113C346.107,63.536 344.651,61.923 342.231,61.923C339.901,61.923 337.548,64.051 337.548,67.95ZM339.52,66.382C339.52,64.612 340.819,63.133 342.052,63.133C343.374,63.133 344.315,64.186 344.315,66.382L339.52,66.382Z" style="fill-rule:nonzero;"/>
        </g>
    </g>
</svg>
