<?xml version="1.0" encoding="UTF-8" standalone="no"?>
<!DOCTYPE svg PUBLIC "-//W3C//DTD SVG 1.1//EN" "http://www.w3.org/Graphics/SVG/1.1/DTD/svg11.dtd">
<svg width="100%" height="100%" viewBox="0 0 494 170" version="1.1" xmlns="http://www.w3.org/2000/svg" xmlns:xlink="http://www.w3.org/1999/xlink" xml:space="preserve" xmlns:serif="http://www.serif.com/" style="fill-rule:evenodd;clip-rule:evenodd;stroke-linejoin:round;stroke-miterlimit:2;">
    <rect x="0" y="0" width="494" height="170" style="fill:none;"/>
    <g id="tud" transform="matrix(4.15592,0,0,4.06752,1.07765,-40.7551)">
        <path d="M47.419,29.279L47.419,41.273C47.373,45.849 43.996,48.582 38.385,48.582C32.774,48.582 29.397,45.849 29.351,41.272L29.351,29.279L34.426,29.279L34.426,41.008C34.426,43.531 35.943,45.098 38.385,45.098C40.827,45.098 42.343,43.531 42.343,41.008L42.343,29.279L47.419,29.279Z" style="fill:rgb(35,31,32);fill-rule:nonzero;"/>
        <path d="M26.631,29.28L26.631,32.767L20.693,32.767L20.693,48.188L15.618,48.188L15.618,32.767L9.679,32.767L9.679,29.28L26.631,29.28Z" style="fill:rgb(35,31,32);fill-rule:nonzero;"/>
        <path d="M15.087,25.529L15.054,25.369C14.081,20.933 16.427,17.408 22.029,14.894C23.225,14.358 24.582,14.011 25.894,13.676C28.194,13.089 30.572,12.482 32.221,10.833C32.221,10.832 32.588,10.221 32.588,10.221C32.74,10.243 32.732,10.55 32.56,11.013C32.19,12.007 30.784,12.99 29.296,14.03C27.431,15.334 25.504,16.682 25.503,18.202C25.501,18.931 25.725,19.466 26.168,19.792C26.668,20.16 27.435,20.221 28.272,19.958C28.853,19.776 29.561,19.35 30.167,18.819C30.167,18.818 30.28,18.713 30.28,18.713C30.354,18.644 30.505,18.5 30.55,18.51C30.589,18.541 30.595,18.69 30.492,18.932C29.465,22.497 25.743,27.564 21.412,27.841C21.408,27.841 20.82,27.838 20.82,27.838C20.816,27.786 21.076,27.678 21.305,27.582L22.075,27.174C23.821,25.816 24.331,24.443 24.705,22.229C24.747,21.978 24.821,21.386 24.598,21.308C24.389,21.235 24.265,21.461 24.077,21.8C23.552,22.722 22.371,23.613 21.438,23.554C20.938,23.523 20.566,23.223 20.335,22.664C20.002,21.861 20.541,21.079 21.162,20.174C21.649,19.468 22.2,18.667 22.412,17.723L22.465,17.03L22.306,17.018C22.152,17.004 21.942,17.222 21.68,17.666C21.119,18.618 20.124,19.362 19.071,20.15C17.299,21.475 15.467,22.846 15.499,25.376C15.502,25.83 15.508,26.59 15.393,26.655C15.342,26.603 15.23,26.222 15.087,25.529Z" style="fill:rgb(35,31,32);fill-rule:nonzero;"/>
        <path d="M70.995,41.753C70.995,38.347 72.588,34.707 77.059,34.707C80.604,34.707 82.806,37.071 82.806,40.878L82.806,42.012L73.336,42.012L73.336,42.125C73.336,45.212 74.626,46.982 76.875,46.982C78.884,46.982 79.876,46.162 80.194,44.278L82.608,44.278C82.184,47.008 80.106,48.585 76.848,48.585C71.755,48.585 70.995,44.304 70.995,41.753ZM73.392,40.374L73.391,40.487L80.379,40.487L80.379,40.375C80.379,37.754 79.134,36.312 76.875,36.312C74.611,36.312 73.41,38.355 73.392,40.374Z" style="fill:rgb(35,31,32);fill-rule:nonzero;"/>
        <rect x="86.086" y="29.279" width="2.294" height="18.91" style="fill:rgb(35,31,32);fill-rule:nonzero;"/>
        <path d="M91.385,35.11L93.981,35.11L93.981,32.511C93.981,30.239 95.495,28.882 98.03,28.882C98.03,28.882 99.561,29.108 99.72,29.132L99.72,31.004C99.589,30.994 99.379,30.979 99.379,30.979L98.562,30.935C97.079,30.935 96.275,31.239 96.275,32.849L96.275,35.11L99.347,35.11L99.347,36.637L96.275,36.637L96.275,48.188L93.981,48.188L93.981,36.637L91.385,36.637L91.385,35.11Z" style="fill:rgb(35,31,32);fill-rule:nonzero;"/>
        <path d="M105.595,31.521L105.595,35.11L108.669,35.11L108.669,36.637L105.595,36.637L105.595,45.36C105.595,46.281 106.284,46.876 107.35,46.876C107.35,46.876 108.339,46.758 108.564,46.732L108.564,48.437C108.396,48.452 106.954,48.584 106.954,48.584C103.301,48.584 103.301,46.953 103.301,45.227L103.301,36.637L101.021,36.637L101.021,35.111C101.226,35.111 103.301,35.113 103.301,35.113L103.301,32.245C103.44,32.201 105.343,31.6 105.595,31.521Z" style="fill:rgb(35,31,32);fill-rule:nonzero;"/>
        <path d="M59.406,31.332L55.374,31.332L55.374,46.135L59.406,46.135C63.396,46.135 65.777,43.369 65.777,38.735C65.777,34.099 63.396,31.332 59.406,31.332ZM59.405,29.279C67.691,29.279 68.335,36.517 68.335,38.735C68.335,40.952 67.691,48.188 59.405,48.188L52.945,48.188L52.945,29.279L59.405,29.279Z" style="fill:rgb(35,31,32);fill-rule:nonzero;"/>
        <path d="M38.385,44.985C40.877,44.985 42.231,43.33 42.231,41.008L42.231,29.167L47.531,29.167L47.531,41.273C47.479,46.602 43.21,48.695 38.385,48.695C33.56,48.695 29.291,46.602 29.238,41.273L29.238,29.167L34.539,29.167L34.539,41.008C34.539,43.33 35.893,44.985 38.385,44.985Z" style="fill:rgb(35,31,32);fill-rule:nonzero;"/>
        <path d="M15.505,48.3L20.806,48.3L20.806,32.879L26.744,32.879L26.744,29.168L9.566,29.168L9.566,32.879L15.505,32.879L15.505,48.3Z" style="fill:rgb(35,31,32);fill-rule:nonzero;"/>
        <path d="M28.238,19.85C26.945,20.256 25.611,19.931 25.615,18.202C25.617,15.566 31.808,13.356 32.666,11.052C32.879,10.478 32.892,10.005 32.617,10.02C32.42,10.032 32.574,10.318 32.141,10.753C29.576,13.318 25.279,13.314 21.983,14.791C19.82,15.761 13.484,18.743 14.943,25.393C15.013,25.709 15.201,26.767 15.395,26.767C15.619,26.767 15.617,26.138 15.611,25.375C15.563,21.415 20.252,20.31 21.777,17.723C21.96,17.414 22.275,16.98 22.351,17.181C22.387,17.279 22.363,17.422 22.302,17.698C21.824,19.824 19.601,21.188 20.231,22.708C21.047,24.68 23.404,23.21 24.128,21.942C24.322,21.592 24.431,21.37 24.561,21.415C24.658,21.449 24.654,21.849 24.594,22.21C24.207,24.498 23.681,25.783 22.006,27.085C21.471,27.502 20.628,27.588 20.738,27.909C20.767,27.992 21.13,27.983 21.419,27.954C25.878,27.669 29.608,22.411 30.596,18.976C30.699,18.735 30.73,18.507 30.621,18.422C30.486,18.319 30.291,18.557 30.092,18.734C29.582,19.181 28.883,19.648 28.238,19.85Z" style="fill:rgb(35,31,32);fill-rule:nonzero;"/>
        <path d="M82.919,42.125L82.919,40.878C82.919,37.194 80.833,34.594 77.059,34.594C72.845,34.594 70.882,37.856 70.882,41.753C70.882,45.676 72.58,48.698 76.848,48.698C80.029,48.698 82.361,47.188 82.76,44.166L80.109,44.166C79.816,46.1 78.837,46.869 76.875,46.869C74.302,46.869 73.448,44.58 73.448,42.125L82.919,42.125ZM73.505,40.375C73.523,38.299 74.779,36.424 76.875,36.424C79.313,36.424 80.266,38.095 80.266,40.375L73.505,40.375Z" style="fill:rgb(35,31,32);fill-rule:nonzero;"/>
        <rect x="85.973" y="29.167" width="2.52" height="19.134" style="fill:rgb(35,31,32);fill-rule:nonzero;"/>
        <path d="M96.388,48.3L96.388,36.75L99.46,36.75L99.46,34.998L96.388,34.998L96.388,32.849C96.388,31.311 97.128,31.047 98.562,31.047C98.983,31.047 99.409,31.102 99.833,31.126L99.833,29.035C99.243,28.901 98.642,28.769 98.03,28.769C95.646,28.769 93.868,29.964 93.868,32.511L93.868,34.998L91.273,34.998L91.273,36.75L93.868,36.75L93.868,48.3L96.388,48.3Z" style="fill:rgb(35,31,32);fill-rule:nonzero;"/>
        <path d="M100.908,34.998L100.908,36.75L103.188,36.75L103.188,45.227C103.188,46.997 103.213,48.697 106.954,48.697C107.536,48.697 108.083,48.642 108.677,48.54L108.677,46.605C108.267,46.704 107.749,46.763 107.35,46.763C106.449,46.763 105.708,46.31 105.708,45.36L105.708,36.75L108.782,36.75L108.782,34.998L105.708,34.998L105.708,31.367L103.188,32.162L103.188,35L100.908,34.998Z" style="fill:rgb(35,31,32);fill-rule:nonzero;"/>
        <path d="M55.487,31.444L59.406,31.444C63.829,31.444 65.664,34.781 65.664,38.735C65.664,42.688 63.829,46.022 59.406,46.022L55.487,46.022L55.487,31.444ZM52.832,48.3L59.405,48.3C67.589,48.3 68.448,41.374 68.448,38.735C68.448,36.096 67.589,29.167 59.405,29.167L52.832,29.167L52.832,48.3Z" style="fill:rgb(35,31,32);fill-rule:nonzero;"/>
    </g>
</svg>
