<?xml version="1.0" encoding="UTF-8" standalone="no"?>
<!DOCTYPE svg PUBLIC "-//W3C//DTD SVG 1.1//EN" "http://www.w3.org/Graphics/SVG/1.1/DTD/svg11.dtd">
<svg width="100%" height="100%" viewBox="0 0 300 300" version="1.1" xmlns="http://www.w3.org/2000/svg" xmlns:xlink="http://www.w3.org/1999/xlink" xml:space="preserve" xmlns:serif="http://www.serif.com/" style="fill-rule:evenodd;clip-rule:evenodd;stroke-linejoin:round;stroke-miterlimit:2;">
    <g id="tud" transform="matrix(16.5768,0,0,16.2242,-244.128,-158.213)">
        <path d="M15.087,25.529L15.054,25.369C14.081,20.933 16.427,17.408 22.029,14.894C23.225,14.358 24.582,14.011 25.894,13.676C28.194,13.089 30.572,12.482 32.221,10.833C32.221,10.832 32.588,10.221 32.588,10.221C32.74,10.243 32.732,10.55 32.56,11.013C32.19,12.007 30.784,12.99 29.296,14.03C27.431,15.334 25.504,16.682 25.503,18.202C25.501,18.931 25.725,19.466 26.168,19.792C26.668,20.16 27.435,20.221 28.272,19.958C28.853,19.776 29.561,19.35 30.167,18.819C30.167,18.818 30.28,18.713 30.28,18.713C30.354,18.644 30.505,18.5 30.55,18.51C30.589,18.541 30.595,18.69 30.492,18.932C29.465,22.497 25.743,27.564 21.412,27.841C21.408,27.841 20.82,27.838 20.82,27.838C20.816,27.786 21.076,27.678 21.305,27.582L22.075,27.174C23.821,25.816 24.331,24.443 24.705,22.229C24.747,21.978 24.821,21.386 24.598,21.308C24.389,21.235 24.265,21.461 24.077,21.8C23.552,22.722 22.371,23.613 21.438,23.554C20.938,23.523 20.566,23.223 20.335,22.664C20.002,21.861 20.541,21.079 21.162,20.174C21.649,19.468 22.2,18.667 22.412,17.723L22.465,17.03L22.306,17.018C22.152,17.004 21.942,17.222 21.68,17.666C21.119,18.618 20.124,19.362 19.071,20.15C17.299,21.475 15.467,22.846 15.499,25.376C15.502,25.83 15.508,26.59 15.393,26.655C15.342,26.603 15.23,26.222 15.087,25.529Z" style="fill:rgb(35,31,32);fill-rule:nonzero;"/>
        <path d="M28.238,19.85C26.945,20.256 25.611,19.931 25.615,18.202C25.617,15.566 31.808,13.356 32.666,11.052C32.879,10.478 32.892,10.005 32.617,10.02C32.42,10.032 32.574,10.318 32.141,10.753C29.576,13.318 25.279,13.314 21.983,14.791C19.82,15.761 13.484,18.743 14.943,25.393C15.013,25.709 15.201,26.767 15.395,26.767C15.619,26.767 15.617,26.138 15.611,25.375C15.563,21.415 20.252,20.31 21.777,17.723C21.96,17.414 22.275,16.98 22.351,17.181C22.387,17.279 22.363,17.422 22.302,17.698C21.824,19.824 19.601,21.188 20.231,22.708C21.047,24.68 23.404,23.21 24.128,21.942C24.322,21.592 24.431,21.37 24.561,21.415C24.658,21.449 24.654,21.849 24.594,22.21C24.207,24.498 23.681,25.783 22.006,27.085C21.471,27.502 20.628,27.588 20.738,27.909C20.767,27.992 21.13,27.983 21.419,27.954C25.878,27.669 29.608,22.411 30.596,18.976C30.699,18.735 30.73,18.507 30.621,18.422C30.486,18.319 30.291,18.557 30.092,18.734C29.582,19.181 28.883,19.648 28.238,19.85Z" style="fill:rgb(35,31,32);fill-rule:nonzero;"/>
    </g>
</svg>
