<?xml version="1.0" encoding="UTF-8" standalone="no"?>
<!DOCTYPE svg PUBLIC "-//W3C//DTD SVG 1.1//EN" "http://www.w3.org/Graphics/SVG/1.1/DTD/svg11.dtd">
<svg width="100%" height="100%" viewBox="0 0 494 170" version="1.1" xmlns="http://www.w3.org/2000/svg" xmlns:xlink="http://www.w3.org/1999/xlink" xml:space="preserve" xmlns:serif="http://www.serif.com/" style="fill-rule:evenodd;clip-rule:evenodd;stroke-linejoin:round;stroke-miterlimit:2;">
    <rect x="0" y="0" width="494" height="170" style="fill:none;"/>
    <clipPath id="_clip1">
        <rect x="0" y="0" width="494" height="170"/>
    </clipPath>
    <g clip-path="url(#_clip1)">
        <g id="Kroon" transform="matrix(1.57325,0,0,1.57325,0,0)">
            <g>
                <rect x="0" y="0" width="314" height="125" style="fill:none;"/>
                <rect x="0" y="0" width="50" height="100" style="fill:rgb(21,66,115);"/>
            </g>
            <path d="M25.9,77.36L25.03,77.36L25.03,74.95L25.9,74.95L25.9,77.36ZM29.83,66.72L28.96,66.72L28.96,64.31L29.83,64.31L29.83,66.72ZM13.71,62.56C13.64,62.56 13.19,62.56 13.19,62.65C13.19,62.74 13.4,62.7 13.71,62.75C14.41,62.87 14.68,63.22 15.17,63.22C15.61,63.22 16.07,62.92 15.89,62.28C15.86,62.17 15.8,62.2 15.78,62.27C15.71,62.56 15.36,62.72 14.99,62.72C14.53,62.72 14.44,62.56 13.71,62.56ZM8.92,64.97C9,65.08 9.82,66.14 8.56,66.55C8.5,66.57 8.49,66.62 8.57,66.66C9.5,67.05 9.95,66.33 9.95,66.33C10.42,67.41 9.7,68 9.7,68C9.8,68.19 10.25,68.52 10.92,68.67C11.18,68.53 11.54,68.27 11.69,67.87C11.69,67.87 11.87,68.34 11.71,68.79C13.61,68.96 14.28,67.44 15.75,67.72C15.79,67.73 15.81,67.7 15.81,67.66C15.81,66.72 15.24,65.01 13.42,64.66C11.61,64.31 12.1,63.57 12.1,63.57C12.86,63.54 13.3,63.87 13.3,63.87C13.44,63.64 13.24,63.4 13.24,63.4C13.31,63.31 13.35,63 13.35,63C12.49,63 12.27,62.81 12.27,62.81C12.14,62.3 12.49,61.58 13.77,62.35C14.09,62.07 14.06,61.63 14.06,61.63C14.16,61.58 14.22,61.43 14.22,61.37C14.22,61.16 13.2,60.59 12.94,60.52C12.88,60.21 12.48,59.77 11.28,59.93C10.71,60 10.3,59.85 10.49,59.52C10.52,59.46 10.42,59.45 10.37,59.51C10.24,59.64 10.06,60.01 10.55,60.26C11.1,60.54 11.13,61.09 11.14,61.17C11.15,61.29 11.01,61.3 10.98,61.18C10.73,60.25 9.45,60.05 8.7,60.54C8.74,61.04 9.28,61.37 9.57,61.37C9.74,61.37 9.97,61.2 9.97,60.97C9.97,60.86 10.03,60.87 10.06,60.96C10.18,61.29 9.69,61.98 8.97,61.56C8.23,62.3 8.53,63.22 8.6,63.55C8.73,64.15 8.44,64.74 7.89,64.47C7.86,64.46 7.83,64.45 7.83,64.51C7.84,64.87 8.33,65.3 8.92,64.97ZM13,61.24C12.65,61.63 12.09,61.54 11.95,60.9C12.67,60.86 12.97,60.93 13,61.24ZM35.07,62.72C34.7,62.72 34.35,62.56 34.28,62.27C34.26,62.2 34.2,62.17 34.17,62.28C33.99,62.92 34.45,63.22 34.89,63.22C35.38,63.22 35.65,62.87 36.35,62.75C36.66,62.7 36.87,62.75 36.87,62.65C36.87,62.56 36.42,62.56 36.35,62.56C35.63,62.56 35.53,62.72 35.07,62.72ZM42.23,64.49C42.23,64.43 42.2,64.44 42.17,64.45C41.62,64.72 41.33,64.14 41.46,63.53C41.53,63.19 41.83,62.28 41.09,61.54C40.36,61.96 39.87,61.27 40,60.94C40.03,60.85 40.09,60.84 40.09,60.95C40.09,61.18 40.32,61.35 40.49,61.35C40.78,61.35 41.32,61.02 41.36,60.52C40.61,60.03 39.33,60.23 39.08,61.16C39.05,61.28 38.91,61.27 38.92,61.15C38.92,61.07 38.96,60.52 39.51,60.24C40.01,59.99 39.83,59.62 39.69,59.49C39.64,59.44 39.53,59.45 39.57,59.5C39.76,59.83 39.35,59.98 38.79,59.91C37.59,59.75 37.2,60.2 37.13,60.5C36.87,60.57 35.85,61.14 35.85,61.35C35.85,61.41 35.91,61.57 36.01,61.61C36.01,61.61 35.99,62.04 36.3,62.33C37.57,61.56 37.93,62.28 37.8,62.79C37.8,62.79 37.57,62.97 36.71,62.98C36.71,62.98 36.75,63.29 36.82,63.38C36.82,63.38 36.62,63.63 36.76,63.85C36.76,63.85 37.2,63.52 37.96,63.55C37.96,63.55 38.45,64.29 36.64,64.64C34.83,64.99 34.25,66.7 34.25,67.64C34.25,67.69 34.27,67.71 34.31,67.7C35.78,67.43 36.45,68.95 38.35,68.77C38.18,68.32 38.37,67.85 38.37,67.85C38.52,68.25 38.88,68.52 39.14,68.65C39.82,68.5 40.26,68.18 40.36,67.98C40.36,67.98 39.64,67.39 40.11,66.31C40.11,66.31 40.56,67.03 41.49,66.64C41.57,66.6 41.55,66.55 41.5,66.53C40.24,66.12 41.06,65.06 41.14,64.95C41.73,65.3 42.23,64.87 42.23,64.49ZM38.11,60.9C37.97,61.54 37.41,61.63 37.06,61.24C37.09,60.93 37.4,60.86 38.11,60.9ZM24.7,50.21C24.7,50.37 24.77,50.51 24.82,50.59C24.93,50.75 24.91,50.84 24.86,50.89C24.81,50.94 24.72,50.96 24.56,50.85C24.48,50.79 24.34,50.73 24.18,50.73C23.91,50.73 23.77,50.91 23.77,51.06C23.77,51.21 23.91,51.39 24.18,51.39C24.34,51.39 24.48,51.32 24.56,51.27C24.72,51.16 24.81,51.18 24.86,51.23C24.91,51.28 24.84,51.83 24.77,52.27C24.32,52.37 24.1,52.73 24.1,52.94C24.1,53.49 24.68,53.8 25.03,53.99C25.37,53.81 25.96,53.49 25.96,52.94C25.96,52.73 25.74,52.36 25.29,52.27C25.23,51.84 25.15,51.28 25.2,51.23C25.25,51.18 25.34,51.16 25.5,51.27C25.58,51.33 25.72,51.39 25.88,51.39C26.15,51.39 26.29,51.21 26.29,51.06C26.29,50.91 26.15,50.73 25.88,50.73C25.72,50.73 25.58,50.8 25.5,50.85C25.34,50.96 25.25,50.94 25.2,50.89C25.15,50.84 25.13,50.75 25.24,50.59C25.3,50.51 25.36,50.37 25.36,50.21C25.36,49.94 25.18,49.8 25.03,49.8C24.88,49.8 24.7,49.94 24.7,50.21ZM25.03,54.27C24.66,54.27 24.36,54.57 24.36,54.94C24.36,55.31 24.66,55.61 25.03,55.61C25.4,55.61 25.7,55.31 25.7,54.94C25.7,54.57 25.4,54.27 25.03,54.27ZM25.03,60.68C27.7,60.68 29.2,61.19 29.2,61.19C29.21,59.84 29.21,59.09 29.98,59.2C29.56,58.07 31.38,57.62 31.38,56.15C31.38,55.18 30.69,55.07 30.49,55.07C29.89,55.07 29.98,55.46 29.47,55.46C29.41,55.46 29.34,55.44 29.34,55.49C29.34,55.66 29.48,55.95 29.72,55.95C30.04,55.95 30.04,55.63 30.28,55.63C30.38,55.63 30.53,55.71 30.53,56.04C30.53,56.67 30.12,57.36 29.63,57.9C29.52,57.75 29.37,57.65 29.18,57.65C28.89,57.65 28.64,57.95 28.64,58.32C28.64,58.46 28.66,58.56 28.71,58.67C28.55,58.76 28.4,58.81 28.3,58.81C28.08,58.81 27.75,58.72 27.75,58.24C27.75,57.17 29.18,56.23 29.18,54.87C29.18,54.22 28.75,53.58 27.84,53.58C26.87,53.58 27.05,54.46 26.21,54.46C26.17,54.46 26.14,54.47 26.14,54.51C26.14,54.57 26.29,55.06 26.72,55.06C27.18,55.06 27.31,54.26 27.73,54.26C27.88,54.26 28.11,54.35 28.11,54.89C28.11,55.31 27.9,56 27.6,56.65C27.49,56.54 27.34,56.46 27.18,56.46C26.82,56.46 26.56,56.81 26.56,57.22C26.56,57.48 26.66,57.74 26.84,57.9C26.63,58.17 26.41,58.39 26.12,58.39C25.54,58.39 25.29,58.06 25.29,57.7C25.29,57.31 26,57.17 26,56.57C26,56.16 25.73,55.93 25.48,55.93C25.2,55.93 25.06,56.11 25.03,56.11C25,56.11 24.86,55.93 24.58,55.93C24.32,55.93 24.06,56.16 24.06,56.57C24.06,57.17 24.77,57.32 24.77,57.7C24.77,58.06 24.51,58.39 23.94,58.39C23.65,58.39 23.43,58.17 23.22,57.9C23.4,57.73 23.5,57.48 23.5,57.22C23.5,56.8 23.24,56.46 22.88,56.46C22.71,56.46 22.57,56.54 22.46,56.65C22.16,55.99 21.95,55.31 21.95,54.89C21.95,54.35 22.18,54.26 22.33,54.26C22.74,54.26 22.87,55.06 23.34,55.06C23.77,55.06 23.92,54.57 23.92,54.51C23.92,54.48 23.89,54.46 23.85,54.46C23.01,54.46 23.19,53.58 22.22,53.58C21.32,53.58 20.88,54.22 20.88,54.87C20.88,56.23 22.31,57.17 22.31,58.24C22.31,58.72 21.98,58.81 21.76,58.81C21.65,58.81 21.51,58.76 21.35,58.67C21.4,58.55 21.42,58.46 21.42,58.32C21.42,57.95 21.17,57.65 20.88,57.65C20.7,57.65 20.55,57.75 20.44,57.9C19.95,57.36 19.54,56.67 19.54,56.04C19.54,55.72 19.69,55.63 19.79,55.63C20.02,55.63 20.03,55.95 20.35,55.95C20.59,55.95 20.73,55.66 20.73,55.49C20.73,55.44 20.66,55.46 20.6,55.46C20.09,55.46 20.18,55.07 19.58,55.07C19.38,55.07 18.69,55.18 18.69,56.15C18.69,57.63 20.51,58.07 20.09,59.2C20.86,59.09 20.85,59.84 20.87,61.19C20.86,61.19 22.36,60.68 25.03,60.68ZM20.14,62.67C19.41,62.83 18.89,62.98 18.66,63.05C18.67,62.73 18.79,62.43 19.08,62.37C19.12,62.36 19.13,62.31 19.09,62.29C18.44,61.86 18.1,62.68 18.09,62.71C17.86,62.69 17.51,62.76 17.51,63.07C17.51,64 15.39,64.51 14.9,64.59C15.77,64.92 16.13,66.02 16.13,66.02C16.76,65.39 17.49,64.84 17.66,64.84C17.83,64.84 17.89,65.05 17.9,65.17C17.9,65.21 17.94,65.22 17.97,65.19C18.3,64.7 18.14,64.59 18.11,64.44C18.09,64.33 18.12,63.9 18.6,63.95L18.6,70.14L18.35,70.19C18.24,70.21 17.33,69.44 16.3,68.72C15.26,68 14.71,68.43 13.53,69.07C11.98,69.91 10.42,69.15 10.42,69.15C9.09,70.1 8.63,72.86 8.63,72.86C8.36,72.97 7.92,73.09 7.51,73.09C6.49,73.09 6.31,72.47 6.31,72.11C6.31,70.54 8.28,69.87 8.28,68.32C8.28,67.94 8.11,66.42 6.22,66.42L4.53,66.42C3.82,66.42 3.65,65.91 3.55,65.72C3.51,65.64 3.44,65.69 3.47,65.75C3.52,65.88 3.39,66.08 3.39,66.47C3.39,67.1 3.76,67.48 4.45,67.48C4.76,67.48 5.06,67.39 5.15,67.33C5.21,67.29 5.25,67.35 5.22,67.39C4.92,67.74 4.9,68.4 5.02,68.55C5.05,68.59 5.09,68.58 5.09,68.55C5.26,67.89 5.88,67.26 6.72,67.26C7.75,67.26 7.74,68.13 7.74,68.34C7.74,69.6 5.53,70.52 5.53,72.26C5.53,74.02 7.39,74.39 8.46,74.12C8.4,75.88 6.38,76.48 6.32,75.22C6.32,75.16 6.27,75.15 6.24,75.23C5.99,75.85 6.09,76.4 6.87,76.57C6.92,76.58 6.9,76.61 6.85,76.65C6.07,77.14 6.49,79.08 6.53,79.65C6.59,80.47 5.77,80.37 5.7,80.35C5.67,80.34 5.63,80.35 5.69,80.42C6.27,81.13 6.99,80.48 6.99,80.48C7.53,80.65 7.2,81.11 6.83,81.35C6.77,81.39 6.78,81.43 6.84,81.43C6.92,81.44 7.76,81.51 7.91,80.84C8.28,81.28 8.83,81.12 8.94,81.06C9.1,80.98 9.89,80.69 9.96,81.57C9.96,81.63 10,81.59 10.03,81.56C10.62,80.81 9.99,80.35 9.63,80.3C9.66,80.26 10.13,79.86 10.56,80.41C10.59,80.45 10.62,80.46 10.62,80.38C10.67,79.43 9.9,79.35 9.4,79.76C9.38,79.66 9.21,79.13 9.96,79.15C9.98,79.15 10.01,79.12 9.98,79.09C9.4,78.47 8.92,79.03 8.8,79.17C8.54,79.48 7.89,79.35 7.83,79.35C8.03,76.06 10.93,77.23 11.33,75.63C11.35,75.55 11.39,75.58 11.39,75.61C11.5,76 12.48,76.05 12.66,75.29C12.67,75.24 12.66,75.21 12.63,75.24C11.79,76.08 9.9,73.46 12.48,71.33C14.68,69.52 16.65,70.53 17.4,71.12C17.44,71.38 17.28,71.47 17.18,71.5C17.14,71.51 17.13,71.54 17.19,71.57C17.4,71.65 17.69,71.62 17.83,71.43C18.3,71.76 17.9,72.18 17.71,72.29C17.66,72.32 17.68,72.35 17.72,72.36C18.15,72.44 18.51,72 18.53,71.74L18.6,71.78L18.6,73.65C18.6,76.31 21.67,76.68 25.04,78.93C28.41,76.67 31.47,76.31 31.47,73.65L31.47,71.78L31.54,71.74C31.56,71.99 31.91,72.44 32.35,72.36C32.39,72.35 32.41,72.32 32.36,72.29C32.17,72.17 31.76,71.76 32.24,71.43C32.38,71.63 32.67,71.65 32.88,71.57C32.94,71.55 32.93,71.51 32.89,71.5C32.79,71.47 32.63,71.38 32.67,71.12C33.42,70.52 35.39,69.51 37.59,71.33C40.17,73.46 38.28,76.07 37.44,75.24C37.4,75.2 37.4,75.24 37.41,75.29C37.59,76.06 38.57,76 38.68,75.61C38.69,75.58 38.73,75.55 38.74,75.63C39.14,77.23 42.03,76.06 42.24,79.35C42.18,79.36 41.53,79.48 41.27,79.17C41.16,79.04 40.68,78.47 40.09,79.09C40.05,79.13 40.09,79.15 40.11,79.15C40.86,79.13 40.7,79.66 40.67,79.76C40.17,79.35 39.4,79.43 39.45,80.38C39.45,80.45 39.48,80.45 39.51,80.41C39.94,79.86 40.41,80.26 40.44,80.3C40.09,80.35 39.45,80.81 40.04,81.56C40.07,81.59 40.1,81.63 40.11,81.57C40.19,80.69 40.97,80.97 41.13,81.06C41.24,81.12 41.79,81.28 42.16,80.84C42.31,81.51 43.15,81.44 43.23,81.43C43.29,81.43 43.29,81.39 43.24,81.35C42.88,81.11 42.54,80.65 43.08,80.48C43.08,80.48 43.8,81.13 44.38,80.42C44.43,80.36 44.4,80.34 44.37,80.35C44.3,80.37 43.48,80.47 43.54,79.65C43.58,79.08 44,77.14 43.22,76.65C43.17,76.62 43.15,76.59 43.2,76.57C43.98,76.4 44.08,75.85 43.83,75.23C43.8,75.15 43.75,75.17 43.75,75.22C43.69,76.48 41.68,75.88 41.61,74.12C42.69,74.4 44.54,74.02 44.54,72.26C44.54,70.53 42.33,69.6 42.33,68.34C42.33,68.13 42.32,67.26 43.35,67.26C44.19,67.26 44.81,67.89 44.98,68.55C44.99,68.58 45.02,68.59 45.05,68.55C45.17,68.39 45.15,67.74 44.85,67.39C44.82,67.36 44.85,67.29 44.92,67.33C45.01,67.39 45.31,67.48 45.62,67.48C46.31,67.48 46.68,67.1 46.68,66.47C46.68,66.08 46.54,65.88 46.6,65.75C46.63,65.69 46.55,65.65 46.52,65.72C46.42,65.92 46.24,66.42 45.54,66.42L43.85,66.42C41.96,66.42 41.79,67.95 41.79,68.32C41.79,69.87 43.76,70.54 43.76,72.11C43.76,72.48 43.57,73.09 42.56,73.09C42.14,73.09 41.7,72.97 41.44,72.86C41.44,72.86 40.99,70.11 39.65,69.15C39.65,69.15 38.09,69.91 36.54,69.07C35.36,68.43 34.8,68 33.76,68.72C32.72,69.44 31.82,70.21 31.71,70.19L31.46,70.14L31.46,63.95C31.94,63.9 31.97,64.33 31.95,64.44C31.92,64.58 31.77,64.7 32.09,65.19C32.12,65.23 32.15,65.21 32.16,65.17C32.17,65.05 32.24,64.84 32.4,64.84C32.56,64.84 33.3,65.39 33.93,66.02C33.93,66.02 34.29,64.93 35.16,64.59C34.67,64.51 32.55,64 32.55,63.07C32.55,62.76 32.2,62.69 31.97,62.71C31.96,62.68 31.61,61.86 30.97,62.29C30.94,62.31 30.94,62.36 30.98,62.37C31.27,62.44 31.39,62.73 31.4,63.05C30.78,62.86 28.15,62.12 25.03,62.12C23.51,62.12 22.12,62.3 21.01,62.5L21.01,64.64L20.14,64.64L20.14,62.67M14.38,84.65C14.15,84.56 14,84.41 14,84.1L14,82.77C13.62,82.64 12.58,82.24 10.49,82.24C8.76,82.24 8.22,82.63 8.19,82.77L7.73,85.3C7.73,85.3 8.43,84.66 10.94,84.82C13.96,85.01 17.09,86.8 17.09,84.89L17.09,83.77C14.73,83.78 14.38,84.54 14.38,84.65ZM32.97,83.78L32.97,84.9C32.97,86.8 36.1,85.02 39.12,84.83C41.63,84.67 42.33,85.31 42.33,85.31L41.87,82.77C41.85,82.63 41.3,82.24 39.57,82.24C37.49,82.24 36.45,82.64 36.06,82.77L36.06,84.1C36.06,84.4 35.91,84.55 35.68,84.65C35.69,84.54 35.34,83.78 32.97,83.78ZM25.03,82.63C29.9,82.63 34.84,82.88 35.48,83.62C35.53,83.68 35.55,83.62 35.55,83.57L35.55,80.99C35.55,80.24 30.45,79.8 25.02,79.8C19.59,79.8 14.49,80.24 14.49,80.99L14.49,83.57C14.49,83.61 14.51,83.67 14.56,83.62C15.23,82.89 20.17,82.63 25.03,82.63ZM20.69,70.47L20.2,70.34L20.16,70.4L19.59,70.15L20.1,70.15C20.15,70.15 20.15,70.12 20.13,70.1C19.9,69.87 19.69,69.67 19.69,69.67C19.69,69.67 19.92,69.76 20.25,69.88C20.29,69.89 20.3,69.87 20.28,69.84C20.12,69.61 19.9,69.29 19.9,69.29C19.9,69.29 20.36,69.6 20.45,69.66C20.48,69.68 20.5,69.66 20.49,69.63C20.37,69.33 20.23,68.98 20.23,68.98L20.73,69.46C20.75,69.48 20.78,69.47 20.77,69.44C20.72,69.21 20.63,68.79 20.63,68.79L21,69.33C21.02,69.36 21.05,69.35 21.05,69.32C21.05,69.21 21.06,68.73 21.06,68.73C21.06,68.73 21.22,69.09 21.29,69.27C21.31,69.31 21.33,69.31 21.35,69.26C21.37,69.2 21.54,68.8 21.54,68.8L21.56,69.42L21.48,69.44L21.38,70.18C22.11,70.01 23.03,68.75 23.73,68.75C24.57,68.75 24.87,69.73 26.41,69.23C26.8,69.81 26.94,70.31 27.09,71C27.69,71.56 28.52,71.37 28.52,70.78C28.52,69.98 27.65,69.83 27.65,68.99C27.65,68.62 27.91,68.08 28.62,68.08C29,68.08 29.55,68.24 29.87,68.24C30.25,68.24 30.33,67.97 30.37,67.85C30.4,67.77 30.51,67.79 30.5,67.86C30.49,67.94 30.54,68.05 30.54,68.23C30.54,68.76 29.77,68.83 29.68,68.76C29.64,68.73 29.61,68.77 29.64,68.8C29.76,68.89 29.73,69.21 29.59,69.41C29.57,69.43 29.55,69.43 29.55,69.41C29.47,69.03 29.02,68.56 28.63,68.56C28.49,68.56 28.2,68.64 28.2,68.98C28.2,69.45 29.15,69.89 29.15,70.87C29.15,71.89 28.14,72.14 27.12,71.88C27.15,72.85 28.6,73.42 28.63,72.73C28.63,72.68 28.66,72.71 28.67,72.73C28.88,73.03 28.79,73.25 28.51,73.37C28.76,73.48 28.81,73.99 28.88,74.3C28.99,74.76 29.47,74.5 29.5,74.49C29.53,74.47 29.54,74.49 29.52,74.52C29.34,74.99 28.85,74.81 28.85,74.81C28.6,74.99 28.9,75.15 29.13,75.22C29.16,75.23 29.16,75.25 29.14,75.27C28.97,75.33 28.61,75.45 28.43,75.14C28.3,75.46 28.03,75.45 27.93,75.45C27.74,75.45 27.62,75.64 27.66,75.9C27.66,75.92 27.65,75.93 27.63,75.92C27.19,75.63 27.44,75.28 27.62,75.19C27.59,75.17 27.28,75.04 27.15,75.4C27.14,75.43 27.12,75.43 27.11,75.4C26.92,74.88 27.34,74.73 27.64,74.86C27.62,74.79 27.46,74.53 27.06,74.62C27.04,74.63 27.03,74.62 27.04,74.59C27.11,74.43 27.3,74.2 27.67,74.43C27.86,74.55 28.18,74.38 28.21,74.36C27.56,73.07 26.31,74.15 26.02,73.14C26.01,73.12 25.99,73.1 25.97,73.16C25.9,73.37 25.35,73.39 25.25,72.97C25.24,72.94 25.25,72.93 25.28,72.95C25.36,73.03 25.53,73.1 25.76,72.78C25.91,72.56 25.93,72.27 25.93,72.08C25.93,71.3 25.15,69.98 23.93,69.98C23.16,69.98 22.33,70.28 21.71,70.73L22.28,70.86C22.23,71.44 21.67,71.78 21.16,71.63L21.25,70.97C21.16,71 20.94,71.08 20.82,71.25C20.81,71.26 20.79,71.26 20.79,71.24C20.69,70.86 21,70.67 21.09,70.63C21.1,70.62 21.1,70.62 21.08,70.62C20.8,70.61 20.65,70.81 20.6,70.88C20.59,70.89 20.58,70.89 20.58,70.88C20.61,70.8 20.56,70.61 20.69,70.47ZM22.4,74.95C22.18,75.22 21.99,74.96 21.7,74.96C21.43,74.96 21.38,75.19 21.38,75.28C21.38,75.3 21.37,75.3 21.36,75.29C21.05,74.87 21.4,74.64 21.6,74.61C21.57,74.58 21.27,74.38 21.08,74.66C21.07,74.68 21.05,74.67 21.05,74.65C21.04,74.13 21.45,74.09 21.73,74.32C21.78,74.12 21.65,73.99 21.43,73.98C21.4,73.98 21.4,73.96 21.41,73.95C21.5,73.85 21.59,73.81 21.68,73.81C21.97,73.81 22.01,74.18 22.2,74.18C22.48,74.18 22.89,73.8 22.92,73.76C22.91,73.74 22.64,73 22.69,72.56C22.69,72.54 22.68,72.54 22.67,72.55C22.53,72.63 22.19,72.62 22.19,72.2C22.19,72.17 22.2,72.16 22.22,72.19C22.37,72.4 22.62,72.16 22.74,72.02C22.87,71.87 23.59,70.83 24.54,70.83C24.75,70.83 25.02,70.95 25.24,71.1C24.91,71.5 25.24,71.88 25.48,71.83C25.51,71.82 25.51,71.85 25.49,71.86C24.23,72.33 23.67,72.52 23.67,73.58C23.67,74.13 23.86,74.44 24.18,74.36C24.2,74.35 24.21,74.36 24.19,74.38C24.07,74.52 23.94,74.57 23.83,74.57C23.57,74.57 23.52,74.43 23.38,74.43C23.24,74.43 22.77,74.71 22.77,74.94C22.77,75.03 22.83,75.15 22.99,75.25C23,75.26 22.99,75.27 22.99,75.27C22.85,75.27 22.48,75.3 22.4,74.95ZM25.71,64.7C25.32,64.68 25.06,64.76 25.08,64.89C25.27,65.09 25.52,65.07 25.71,64.7ZM24.26,65.67C24.54,65.6 24.84,65.63 24.88,65.64C24.92,65.65 24.92,65.72 24.87,65.73C24.29,65.8 24.26,66.07 23.89,66.07C23.65,66.07 23.38,65.82 23.48,65.46C23.49,65.41 23.53,65.41 23.54,65.46C23.58,65.62 23.81,65.79 24.26,65.67ZM16.73,78.53C17.11,79.02 17.48,78.56 17.99,78.56C18.24,78.56 18.54,78.64 18.59,79.14C18.59,79.17 18.61,79.17 18.64,79.14C19.19,78.39 18.56,77.97 18.2,77.91C18.28,77.84 18.81,77.51 19.16,78C19.18,78.03 19.22,78.02 19.22,77.98C19.22,77.03 18.51,76.96 17.99,77.37C17.89,77 18.17,76.76 18.53,76.76C18.57,76.76 18.59,76.73 18.57,76.71C17.93,76.03 17.46,76.89 17.35,77.02C17.1,77.36 16.19,76.72 15.82,76.34C15.82,76.34 16.62,75.5 16.62,74.73C16.62,74.68 16.61,74.62 16.61,74.59C16.61,74.57 16.62,74.56 16.64,74.57C16.72,74.62 16.83,74.65 16.94,74.65C17.12,74.65 17.47,74.59 17.47,73.94C17.47,73.89 17.45,73.89 17.43,73.92C17.33,74.06 17.23,74.09 17.15,74.09C16.5,74.09 15.15,71.93 13.55,71.93C13.13,71.93 12.34,72.23 11.95,72.66C12.14,72.77 12.18,73.01 12.16,73.18C12.13,73.45 11.91,73.59 11.69,73.65C11.65,73.66 11.65,73.69 11.69,73.71C12.5,74.02 13.96,74.57 14.3,74.86C14.69,75.2 14.62,75.84 14.39,76.73C14.17,77.58 13.7,77.47 13.52,77.44C13.49,77.44 13.49,77.45 13.5,77.47C13.71,77.73 13.96,77.82 14.18,77.82C14.6,77.82 14.76,77.56 14.97,77.56C15.33,77.56 16.1,78.08 16.1,78.48C16.1,78.7 15.93,78.91 15.7,79.05C15.69,79.06 15.69,79.08 15.71,79.08C15.88,79.11 16.59,79.17 16.73,78.53ZM34.36,79.08C34.38,79.08 34.39,79.06 34.37,79.05C34.15,78.9 33.97,78.7 33.97,78.48C33.97,78.08 34.73,77.56 35.1,77.56C35.32,77.56 35.47,77.82 35.89,77.82C36.11,77.82 36.36,77.73 36.57,77.47C36.59,77.45 36.58,77.43 36.55,77.44C36.38,77.47 35.9,77.58 35.68,76.73C35.45,75.84 35.37,75.2 35.77,74.86C36.1,74.57 37.57,74.02 38.38,73.71C38.42,73.69 38.42,73.66 38.38,73.65C38.16,73.59 37.94,73.45 37.91,73.18C37.89,73.01 37.93,72.78 38.12,72.66C37.72,72.23 36.93,71.93 36.51,71.93C34.91,71.93 33.56,74.09 32.91,74.09C32.83,74.09 32.72,74.06 32.63,73.92C32.61,73.89 32.59,73.89 32.59,73.94C32.59,74.59 32.94,74.65 33.12,74.65C33.22,74.65 33.34,74.62 33.42,74.57C33.44,74.56 33.45,74.57 33.45,74.59C33.45,74.62 33.44,74.68 33.44,74.73C33.44,75.5 34.24,76.34 34.24,76.34C33.88,76.72 32.97,77.35 32.71,77.02C32.6,76.88 32.13,76.03 31.49,76.71C31.47,76.74 31.48,76.76 31.53,76.76C31.89,76.76 32.17,77 32.07,77.37C31.55,76.96 30.84,77.03 30.84,77.98C30.84,78.02 30.88,78.03 30.9,78C31.24,77.51 31.78,77.84 31.85,77.91C31.49,77.96 30.87,78.39 31.41,79.14C31.43,79.17 31.45,79.17 31.46,79.14C31.52,78.65 31.82,78.56 32.06,78.56C32.56,78.56 32.93,79.02 33.32,78.53C33.48,79.17 34.19,79.11 34.36,79.08ZM21.45,66.61C21.4,66.68 21.23,66.61 21.17,66.58C21.16,66.57 21.15,66.58 21.16,66.59C21.2,66.68 21.36,66.95 21.6,66.95C21.71,66.95 21.87,66.89 21.91,66.81C21.91,66.81 22.85,67.12 23.31,67.24C23.13,67.48 23.02,67.77 22.99,68.08C22.62,67.85 21.12,67.05 21.12,67.05L20.66,67.69C20.58,67.79 20.21,67.52 20.29,67.42L20.64,66.93C20.52,66.81 20.24,66.88 20.16,66.91C20.15,66.91 20.14,66.91 20.15,66.89C20.2,66.79 20.37,66.5 20.81,66.63C20.81,66.36 20.41,66.45 20.3,66.48C20.29,66.48 20.28,66.48 20.29,66.47C20.4,66.35 20.73,66.09 21.09,66.31L21.25,66.09L20.93,65.75L21.13,65.47L21.36,65.77L23.09,63.4C23.13,63.34 23.48,63.24 23.6,63.21C23.61,63.34 23.63,63.7 23.59,63.76L21.89,66.15L22.25,66.27L22.05,66.55L21.63,66.35L21.45,66.61ZM27.52,66.22C27.52,66.44 27.65,66.76 27.94,66.66C27.95,66.65 27.97,66.66 27.96,66.67C27.92,66.91 27.48,67.13 27.29,66.85C27.11,67.22 27.16,67.57 27.53,67.77C27.55,67.78 27.55,67.81 27.53,67.83C27.3,67.99 26.95,67.96 26.79,67.64C26.48,67.87 26.52,68.37 26.71,68.54C26.71,68.54 25.85,69.05 25.07,68.69C24.55,68.44 24.13,68.12 23.46,68.18C23.55,67.24 24.02,67 24.88,66.86C25.57,66.75 25.65,66.43 25.56,66.19C25.33,66.13 24.9,66.34 24.9,66.34C24.82,66.21 24.93,66.08 24.93,66.08C24.89,66.03 24.87,65.86 24.87,65.86C25.35,65.86 25.44,65.75 25.44,65.75C25.53,65.25 25.02,65.2 24.63,65.47C24.45,65.31 24.48,65.1 24.48,65.1C24.43,65.07 24.39,64.99 24.39,64.95C24.39,64.83 24.96,64.51 25.11,64.47C25.15,64.3 25.35,64.07 25.96,64.13C26.03,63.97 25.91,63.38 25.84,63.23C25.82,63.18 25.85,63.16 25.9,63.19C26.11,63.32 26.32,63.82 26.47,63.83C26.47,63.83 27.15,63.47 27.18,63.49C27.21,63.51 27.31,64.27 27.31,64.27C27.4,64.38 27.93,64.27 28.16,64.37C28.22,64.4 28.22,64.44 28.16,64.45C27.99,64.48 27.44,64.72 27.35,64.87C27.67,65.34 27.52,66.03 27.52,66.22Z" style="fill:white;fill-rule:nonzero;"/>
        </g>
        <g id="RO--EN-" serif:id="RO (EN)" transform="matrix(1.42816,0,0,1.42816,-83.5325,45.4013)">
            <path d="M130.759,45.857C131.319,45.992 131.969,46.081 132.484,46.081C133.559,46.081 134.097,45.992 135.061,45.7L135.061,45.208L133.604,44.827L134.299,33.601L134.321,33.579L138.354,46.104L139.228,45.992L143.217,33.556L143.261,33.556L143.822,43.729C143.866,44.647 143.441,45.208 142.5,45.432L142.5,45.857C143.284,46.037 143.934,46.081 144.964,46.081C145.838,46.081 146.6,45.947 147.138,45.7L147.138,45.208L145.838,44.961L144.852,32.637L146.241,32.301L146.241,31.652C145.345,31.517 144.337,31.495 143.53,31.495L142.567,31.495L139.161,42.362L139.139,42.362L135.621,31.495L134.814,31.495C134.008,31.495 132.775,31.517 131.767,31.652L131.767,32.301L133.066,32.682L132.081,44.132C132.013,44.804 131.588,45.208 130.759,45.454L130.759,45.857Z" style="fill-rule:nonzero;"/>
            <path d="M150.947,33.13C151.664,33.13 152.202,32.525 152.202,31.741C152.202,31.002 151.664,30.531 151.036,30.531C150.252,30.531 149.759,31.159 149.759,31.853C149.759,32.593 150.275,33.13 150.947,33.13ZM148.818,45.857C149.334,46.014 149.983,46.059 150.499,46.059C151.641,46.059 152.336,45.947 153.098,45.678L153.098,45.252L151.843,44.916L151.843,36.402L151.955,35.192L151.238,35.192C150.611,35.192 149.58,35.326 148.572,35.618L148.572,36.088L150.006,36.693L150.006,44.266C150.006,44.804 149.423,45.252 148.818,45.476L148.818,45.857Z" style="fill-rule:nonzero;"/>
            <path d="M154.913,45.857C155.428,46.014 156.056,46.059 156.593,46.059C157.714,46.059 158.431,45.947 159.192,45.678L159.192,45.252L157.938,44.916L157.938,37.388C158.431,37.007 159.327,36.693 160.246,36.693C161.568,36.693 162.486,37.522 162.486,39.718L162.486,43.998C162.486,44.804 162.24,45.23 161.68,45.476L161.68,45.857C162.128,46.014 162.665,46.059 163.136,46.059C164.099,46.059 164.884,45.925 165.489,45.678L165.489,45.252L164.324,44.916L164.324,38.642C164.324,36.335 163.046,35.147 161.187,35.147C159.887,35.147 158.632,35.64 157.87,36.402L157.87,35.192L157.333,35.192C156.683,35.192 155.675,35.304 154.644,35.595L154.644,36.088L156.1,36.693L156.1,44.266C156.1,44.804 155.495,45.252 154.913,45.476L154.913,45.857Z" style="fill-rule:nonzero;"/>
            <path d="M169.365,33.13C170.082,33.13 170.62,32.525 170.62,31.741C170.62,31.002 170.082,30.531 169.455,30.531C168.67,30.531 168.177,31.159 168.177,31.853C168.177,32.593 168.693,33.13 169.365,33.13ZM167.236,45.857C167.752,46.014 168.401,46.059 168.917,46.059C170.06,46.059 170.754,45.947 171.516,45.678L171.516,45.252L170.261,44.916L170.261,36.402L170.373,35.192L169.656,35.192C169.029,35.192 167.998,35.326 166.99,35.618L166.99,36.088L168.424,36.693L168.424,44.266C168.424,44.804 167.841,45.252 167.236,45.476L167.236,45.857Z" style="fill-rule:nonzero;"/>
            <path d="M172.995,44.356C172.995,45.566 173.869,46.193 175.84,46.193C178.35,46.193 180.008,44.625 180.008,42.9C180.008,41.578 179.403,40.749 177.79,40.121L176.58,39.651C175.235,39.135 174.832,38.687 174.832,37.881C174.832,37.119 175.504,36.491 176.938,36.491C177.79,36.491 178.776,36.85 179.493,37.343C179.56,37.029 179.605,36.738 179.605,36.402C179.605,35.55 178.888,35.013 177.095,35.013C174.765,35.013 173.196,36.536 173.196,38.306C173.196,39.583 173.913,40.525 175.213,41.085L176.333,41.555C177.812,42.183 178.26,42.676 178.26,43.46C178.26,44.244 177.611,44.849 176.356,44.849C175.168,44.849 174.205,44.378 173.196,43.437C173.062,43.684 172.995,44.042 172.995,44.356Z" style="fill-rule:nonzero;"/>
            <path d="M182.518,43.034C182.518,45.208 183.391,46.149 185.184,46.149C186.73,46.149 187.514,45.476 187.604,44.154L187.38,44.065C186.932,44.423 186.371,44.647 185.722,44.647C184.893,44.647 184.355,44.02 184.355,42.205C184.355,41.376 184.355,40.525 184.377,39.583L184.422,36.76L187.29,36.76L187.447,35.55L184.489,35.55L184.579,33.534L183.84,33.623L181.42,36.021L181.42,36.76L182.652,36.76L182.585,39.74C182.562,40.771 182.518,41.959 182.518,43.034Z" style="fill-rule:nonzero;"/>
            <path d="M188.567,45.857C189.083,46.014 189.71,46.059 190.36,46.059C191.637,46.059 192.376,45.947 193.138,45.678L193.138,45.252L191.592,44.916L191.592,37.791C192.22,37.186 192.869,36.872 193.564,36.872C194.034,36.872 194.527,37.052 194.953,37.388C195.177,36.962 195.312,36.469 195.312,36.043C195.312,35.416 194.931,35.08 194.147,35.08C193.385,35.08 192.78,35.416 192.175,36.066L191.547,36.76L191.525,36.76L191.525,35.192L190.987,35.192C190.337,35.192 189.329,35.304 188.298,35.595L188.298,36.088L189.755,36.693L189.755,44.266C189.755,44.804 189.15,45.252 188.567,45.476L188.567,45.857Z" style="fill-rule:nonzero;"/>
            <path d="M198.65,46.193C197.732,48.613 196.365,49.689 195.424,49.689C195.043,49.689 194.729,49.666 194.415,49.599C194.415,50.944 194.886,51.347 195.782,51.347C196.925,51.347 198.695,49.89 200.465,44.961L203.624,36.223L204.185,35.73L204.185,35.192L200.824,35.192L200.824,35.73L202.078,36.335L199.95,43.101L199.927,43.101L197.552,36.267L198.762,35.73L198.762,35.192L194.639,35.192L194.639,35.73L195.491,36.379L199.031,45.185L198.65,46.193Z" style="fill-rule:nonzero;"/>
            <path d="M209.271,41.04C209.271,44.311 211.467,46.216 214.178,46.216C216.844,46.216 219.421,43.886 219.421,40.188C219.421,37.074 217.292,35.013 214.536,35.013C211.78,35.013 209.271,37.365 209.271,41.04ZM211.31,40.816C211.31,37.858 212.834,36.312 214.38,36.312C215.97,36.312 217.382,37.769 217.382,40.39C217.382,43.46 215.814,44.916 214.312,44.916C212.721,44.916 211.31,43.527 211.31,40.816Z" style="fill-rule:nonzero;"/>
            <path d="M221.348,45.857C221.863,46.014 222.491,46.059 223.028,46.059C224.261,46.059 225.023,45.947 225.784,45.678L225.784,45.252L224.373,44.916L224.373,36.783L227.017,36.783L227.263,35.573L224.395,35.573C224.35,35.08 224.306,33.892 224.306,33.556C224.306,31.965 225.045,31.114 225.964,31.114C226.86,31.114 228.115,31.293 228.944,31.584C229.011,31.36 229.056,31.047 229.056,30.845C229.056,30.195 228.428,29.769 226.838,29.769C224.082,29.769 222.513,31.472 222.536,33.847L222.536,35.506L221.303,35.998L221.303,36.783L222.536,36.783L222.536,44.266C222.536,44.804 221.931,45.252 221.348,45.476L221.348,45.857Z" style="fill-rule:nonzero;"/>
            <path d="M232.484,45.857C233.089,46.014 233.672,46.081 234.568,46.081C235.531,46.081 236.405,45.925 237.145,45.7L237.145,45.208L235.733,44.849L235.733,33.735C235.733,32.839 236.069,32.391 237.032,32.122L237.032,31.696C236.405,31.54 235.778,31.472 234.949,31.472C234.097,31.472 233.291,31.584 232.372,31.831L232.372,32.324L233.784,32.682L233.784,43.706C233.784,44.804 233.246,45.208 232.484,45.432L232.484,45.857Z" style="fill-rule:nonzero;"/>
            <path d="M239.161,45.857C239.676,46.014 240.304,46.059 240.842,46.059C241.962,46.059 242.679,45.947 243.441,45.678L243.441,45.252L242.186,44.916L242.186,37.388C242.679,37.007 243.575,36.693 244.494,36.693C245.816,36.693 246.734,37.522 246.734,39.718L246.734,43.998C246.734,44.804 246.488,45.23 245.928,45.476L245.928,45.857C246.376,46.014 246.914,46.059 247.384,46.059C248.348,46.059 249.132,45.925 249.737,45.678L249.737,45.252L248.572,44.916L248.572,38.642C248.572,36.335 247.295,35.147 245.435,35.147C244.135,35.147 242.881,35.64 242.119,36.402L242.119,35.192L241.581,35.192C240.931,35.192 239.923,35.304 238.892,35.595L238.892,36.088L240.349,36.693L240.349,44.266C240.349,44.804 239.744,45.252 239.161,45.476L239.161,45.857Z" style="fill-rule:nonzero;"/>
            <path d="M251.462,45.857C251.978,46.014 252.605,46.059 253.143,46.059C254.375,46.059 255.137,45.947 255.899,45.678L255.899,45.252L254.487,44.916L254.487,36.783L257.131,36.783L257.378,35.573L254.51,35.573C254.465,35.08 254.42,33.892 254.42,33.556C254.42,31.965 255.159,31.114 256.078,31.114C256.974,31.114 258.229,31.293 259.058,31.584C259.125,31.36 259.17,31.047 259.17,30.845C259.17,30.195 258.543,29.769 256.952,29.769C254.196,29.769 252.627,31.472 252.65,33.847L252.65,35.506L251.417,35.998L251.417,36.783L252.65,36.783L252.65,44.266C252.65,44.804 252.045,45.252 251.462,45.476L251.462,45.857Z" style="fill-rule:nonzero;"/>
            <path d="M258.184,45.857C258.7,46.014 259.327,46.059 259.977,46.059C261.254,46.059 261.993,45.947 262.755,45.678L262.755,45.252L261.209,44.916L261.209,37.791C261.836,37.186 262.486,36.872 263.181,36.872C263.651,36.872 264.144,37.052 264.57,37.388C264.794,36.962 264.929,36.469 264.929,36.043C264.929,35.416 264.548,35.08 263.763,35.08C263.002,35.08 262.397,35.416 261.792,36.066L261.164,36.76L261.142,36.76L261.142,35.192L260.604,35.192C259.954,35.192 258.946,35.304 257.915,35.595L257.915,36.088L259.372,36.693L259.372,44.266C259.372,44.804 258.767,45.252 258.184,45.476L258.184,45.857Z" style="fill-rule:nonzero;"/>
            <path d="M265.399,43.706C265.399,45.14 266.564,46.193 268.245,46.193C269.432,46.193 270.642,45.723 271.27,45.118C271.538,45.588 271.875,45.947 272.3,46.216C272.883,45.925 273.488,45.476 273.824,45.073C273.421,44.759 273.085,44.334 272.928,43.93L272.995,40.3C273.017,39.651 273.085,38.53 273.085,38.037C273.085,36.178 271.74,35.035 269.477,35.035C266.856,35.035 265.802,35.864 265.802,37.298C265.802,37.545 265.825,37.746 265.87,37.97C266.811,37.029 267.998,36.514 269.231,36.514C270.642,36.514 271.225,37.029 271.225,39.449L271.225,40.054C267.55,40.054 265.399,41.735 265.399,43.706ZM267.326,43.37C267.326,42.16 268.693,41.107 271.225,41.107L271.225,44.244C270.665,44.58 269.768,44.849 269.074,44.849C267.931,44.849 267.326,44.266 267.326,43.37Z" style="fill-rule:nonzero;"/>
            <path d="M275.415,44.356C275.415,45.566 276.289,46.193 278.26,46.193C280.77,46.193 282.428,44.625 282.428,42.9C282.428,41.578 281.823,40.749 280.21,40.121L279,39.651C277.655,39.135 277.252,38.687 277.252,37.881C277.252,37.119 277.924,36.491 279.358,36.491C280.21,36.491 281.196,36.85 281.913,37.343C281.98,37.029 282.025,36.738 282.025,36.402C282.025,35.55 281.308,35.013 279.515,35.013C277.185,35.013 275.616,36.536 275.616,38.306C275.616,39.583 276.333,40.525 277.633,41.085L278.753,41.555C280.232,42.183 280.68,42.676 280.68,43.46C280.68,44.244 280.031,44.849 278.776,44.849C277.588,44.849 276.625,44.378 275.616,43.437C275.482,43.684 275.415,44.042 275.415,44.356Z" style="fill-rule:nonzero;"/>
            <path d="M284.938,43.034C284.938,45.208 285.811,46.149 287.604,46.149C289.15,46.149 289.934,45.476 290.024,44.154L289.8,44.065C289.352,44.423 288.791,44.647 288.142,44.647C287.313,44.647 286.775,44.02 286.775,42.205C286.775,41.376 286.775,40.525 286.797,39.583L286.842,36.76L289.71,36.76L289.867,35.55L286.909,35.55L286.999,33.534L286.26,33.623L283.84,36.021L283.84,36.76L285.072,36.76L285.005,39.74C284.982,40.771 284.938,41.959 284.938,43.034Z" style="fill-rule:nonzero;"/>
            <path d="M290.987,45.857C291.503,46.014 292.13,46.059 292.78,46.059C294.057,46.059 294.796,45.947 295.558,45.678L295.558,45.252L294.012,44.916L294.012,37.791C294.64,37.186 295.289,36.872 295.984,36.872C296.454,36.872 296.947,37.052 297.373,37.388C297.597,36.962 297.732,36.469 297.732,36.043C297.732,35.416 297.351,35.08 296.566,35.08C295.805,35.08 295.2,35.416 294.595,36.066L293.967,36.76L293.945,36.76L293.945,35.192L293.407,35.192C292.757,35.192 291.749,35.304 290.718,35.595L290.718,36.088L292.175,36.693L292.175,44.266C292.175,44.804 291.57,45.252 290.987,45.476L290.987,45.857Z" style="fill-rule:nonzero;"/>
            <path d="M299.479,42.429C299.479,45.006 300.667,46.104 302.571,46.104C303.961,46.104 305.238,45.432 305.798,44.916C306,45.432 306.403,45.902 306.851,46.216C307.411,45.947 308.039,45.521 308.375,45.163C308.016,44.782 307.68,44.378 307.523,43.998L307.523,36.424L307.658,35.169L306.918,35.169C306.291,35.169 305.417,35.304 304.386,35.595L304.386,36.066L305.686,36.693L305.686,43.953C305.171,44.289 304.319,44.603 303.49,44.603C302.056,44.603 301.317,43.841 301.317,41.488L301.317,36.424L301.451,35.169L300.712,35.169C300.084,35.169 299.21,35.304 298.202,35.595L298.202,36.066L299.479,36.693L299.479,42.429Z" style="fill-rule:nonzero;"/>
            <path d="M310.212,41.04C310.212,44.154 312.273,46.193 314.716,46.193C316.844,46.193 317.987,45.364 317.987,44.311C317.987,44.11 317.942,43.886 317.875,43.751C317.18,44.266 316.195,44.647 315.321,44.647C313.573,44.647 312.161,43.303 312.161,40.637C312.161,38.037 313.483,36.514 315.029,36.514C315.97,36.514 316.777,36.872 317.629,37.545C317.785,37.186 317.897,36.805 317.897,36.379C317.897,35.64 317.292,35.057 315.478,35.057C312.52,35.057 310.212,37.365 310.212,41.04Z" style="fill-rule:nonzero;"/>
            <path d="M320.34,43.034C320.34,45.208 321.214,46.149 323.006,46.149C324.552,46.149 325.336,45.476 325.426,44.154L325.202,44.065C324.754,44.423 324.194,44.647 323.544,44.647C322.715,44.647 322.177,44.02 322.177,42.205C322.177,41.376 322.177,40.525 322.199,39.583L322.244,36.76L325.112,36.76L325.269,35.55L322.312,35.55L322.401,33.534L321.662,33.623L319.242,36.021L319.242,36.76L320.474,36.76L320.407,39.74C320.385,40.771 320.34,41.959 320.34,43.034Z" style="fill-rule:nonzero;"/>
            <path d="M327.353,42.429C327.353,45.006 328.541,46.104 330.445,46.104C331.834,46.104 333.111,45.432 333.672,44.916C333.873,45.432 334.277,45.902 334.725,46.216C335.285,45.947 335.912,45.521 336.248,45.163C335.89,44.782 335.554,44.378 335.397,43.998L335.397,36.424L335.531,35.169L334.792,35.169C334.165,35.169 333.291,35.304 332.26,35.595L332.26,36.066L333.56,36.693L333.56,43.953C333.044,44.289 332.193,44.603 331.364,44.603C329.93,44.603 329.19,43.841 329.19,41.488L329.19,36.424L329.325,35.169L328.585,35.169C327.958,35.169 327.084,35.304 326.076,35.595L326.076,36.066L327.353,36.693L327.353,42.429Z" style="fill-rule:nonzero;"/>
            <path d="M338.287,45.857C338.803,46.014 339.43,46.059 340.08,46.059C341.357,46.059 342.096,45.947 342.858,45.678L342.858,45.252L341.312,44.916L341.312,37.791C341.94,37.186 342.589,36.872 343.284,36.872C343.755,36.872 344.247,37.052 344.673,37.388C344.897,36.962 345.032,36.469 345.032,36.043C345.032,35.416 344.651,35.08 343.867,35.08C343.105,35.08 342.5,35.416 341.895,36.066L341.267,36.76L341.245,36.76L341.245,35.192L340.707,35.192C340.057,35.192 339.049,35.304 338.018,35.595L338.018,36.088L339.475,36.693L339.475,44.266C339.475,44.804 338.87,45.252 338.287,45.476L338.287,45.857Z" style="fill-rule:nonzero;"/>
            <path d="M345.614,41.062C345.614,44.199 347.698,46.193 350.252,46.193C352.627,46.193 354.106,45.252 354.106,44.244C354.106,44.02 354.061,43.774 354.017,43.661C353.165,44.244 351.955,44.625 350.857,44.625C348.998,44.625 347.541,43.169 347.541,40.659L354.151,40.659C354.174,40.099 354.174,39.651 354.174,39.225C354.174,36.648 352.717,35.035 350.297,35.035C347.967,35.035 345.614,37.164 345.614,41.062ZM347.586,39.494C347.586,37.724 348.886,36.245 350.118,36.245C351.44,36.245 352.381,37.298 352.381,39.494L347.586,39.494Z" style="fill-rule:nonzero;"/>
            <path d="M131.072,70.594C131.072,72.028 132.237,73.081 133.918,73.081C135.105,73.081 136.315,72.611 136.943,72.006C137.212,72.476 137.548,72.835 137.973,73.104C138.556,72.812 139.161,72.364 139.497,71.961C139.094,71.647 138.758,71.221 138.601,70.818L138.668,67.188C138.691,66.538 138.758,65.418 138.758,64.925C138.758,63.065 137.413,61.923 135.15,61.923C132.529,61.923 131.476,62.752 131.476,64.186C131.476,64.432 131.498,64.634 131.543,64.858C132.484,63.917 133.671,63.402 134.904,63.402C136.315,63.402 136.898,63.917 136.898,66.337L136.898,66.942C133.223,66.942 131.072,68.622 131.072,70.594ZM132.999,70.258C132.999,69.048 134.366,67.995 136.898,67.995L136.898,71.132C136.338,71.468 135.442,71.737 134.747,71.737C133.604,71.737 132.999,71.154 132.999,70.258Z" style="fill-rule:nonzero;"/>
            <path d="M141.424,72.745C141.939,72.902 142.567,72.947 143.105,72.947C144.225,72.947 144.942,72.835 145.704,72.566L145.704,72.14L144.449,71.804L144.449,64.275C144.942,63.895 145.838,63.581 146.757,63.581C148.079,63.581 148.997,64.41 148.997,66.606L148.997,70.885C148.997,71.692 148.751,72.118 148.191,72.364L148.191,72.745C148.639,72.902 149.177,72.947 149.647,72.947C150.611,72.947 151.395,72.812 152,72.566L152,72.14L150.835,71.804L150.835,65.53C150.835,63.222 149.558,62.035 147.698,62.035C146.398,62.035 145.144,62.528 144.382,63.29L144.382,62.08L143.844,62.08C143.194,62.08 142.186,62.192 141.155,62.483L141.155,62.976L142.612,63.581L142.612,71.154C142.612,71.692 142.007,72.14 141.424,72.364L141.424,72.745Z" style="fill-rule:nonzero;"/>
            <path d="M153.546,68.174C153.546,71.154 155.361,73.036 157.624,73.036C158.543,73.036 159.775,72.499 160.492,71.759C160.716,72.23 161.119,72.745 161.568,73.104C162.195,72.767 162.688,72.454 163.136,72.05C162.71,71.67 162.441,71.199 162.285,70.751L162.285,57.912L162.419,56.657L161.702,56.657C161.052,56.657 159.954,56.769 158.924,57.061L158.924,57.553L160.447,58.158L160.447,62.102C160.089,62.012 159.439,61.945 158.901,61.945C155.988,61.945 153.546,64.141 153.546,68.174ZM158.184,71.58C156.773,71.58 155.495,70.258 155.495,67.816C155.495,64.701 156.929,63.2 158.834,63.2C159.439,63.2 160.089,63.312 160.47,63.446L160.47,70.863C159.954,71.289 159.036,71.58 158.184,71.58Z" style="fill-rule:nonzero;"/>
            <path d="M173.533,72.947L174.384,72.857L177.476,61.116L177.499,61.116L180.613,72.947L181.487,72.857L185.162,60.534C185.386,59.749 185.699,59.346 186.282,58.965L186.282,58.562C185.834,58.405 185.43,58.338 184.825,58.338C184.064,58.338 183.302,58.45 182.473,58.696L182.473,59.167L183.84,59.592L181.375,69.25L181.352,69.25L179.179,60.175C179.022,59.525 179.157,59.167 179.605,59.01L179.605,58.584C179.157,58.427 178.44,58.36 177.79,58.36C176.938,58.36 176.177,58.472 175.347,58.719L175.347,59.212L176.535,59.57L174.16,69.272L174.138,69.272L171.695,60.242C171.494,59.525 171.695,59.122 172.39,58.965L172.39,58.539C171.695,58.36 171.113,58.338 170.396,58.338C169.679,58.338 168.85,58.472 168.11,58.719L168.11,59.189L169.343,59.57L173.533,72.947Z" style="fill-rule:nonzero;"/>
            <path d="M186.282,70.594C186.282,72.028 187.447,73.081 189.127,73.081C190.315,73.081 191.525,72.611 192.152,72.006C192.421,72.476 192.757,72.835 193.183,73.104C193.766,72.812 194.371,72.364 194.707,71.961C194.303,71.647 193.967,71.221 193.81,70.818L193.878,67.188C193.9,66.538 193.967,65.418 193.967,64.925C193.967,63.065 192.623,61.923 190.36,61.923C187.738,61.923 186.685,62.752 186.685,64.186C186.685,64.432 186.708,64.634 186.752,64.858C187.693,63.917 188.881,63.402 190.113,63.402C191.525,63.402 192.108,63.917 192.108,66.337L192.108,66.942C188.433,66.942 186.282,68.622 186.282,70.594ZM188.209,70.258C188.209,69.048 189.576,67.995 192.108,67.995L192.108,71.132C191.547,71.468 190.651,71.737 189.957,71.737C188.814,71.737 188.209,71.154 188.209,70.258Z" style="fill-rule:nonzero;"/>
            <path d="M197.53,69.922C197.53,72.095 198.404,73.036 200.196,73.036C201.742,73.036 202.527,72.364 202.616,71.042L202.392,70.953C201.944,71.311 201.384,71.535 200.734,71.535C199.905,71.535 199.367,70.908 199.367,69.093C199.367,68.264 199.367,67.412 199.39,66.471L199.434,63.648L202.302,63.648L202.459,62.438L199.502,62.438L199.591,60.422L198.852,60.511L196.432,62.909L196.432,63.648L197.664,63.648L197.597,66.628C197.575,67.659 197.53,68.846 197.53,69.922Z" style="fill-rule:nonzero;"/>
            <path d="M203.378,67.95C203.378,71.087 205.462,73.081 208.016,73.081C210.391,73.081 211.87,72.14 211.87,71.132C211.87,70.908 211.825,70.661 211.78,70.549C210.929,71.132 209.719,71.513 208.621,71.513C206.761,71.513 205.305,70.056 205.305,67.547L211.915,67.547C211.937,66.987 211.937,66.538 211.937,66.113C211.937,63.536 210.481,61.923 208.061,61.923C205.731,61.923 203.378,64.051 203.378,67.95ZM205.35,66.382C205.35,64.612 206.649,63.133 207.882,63.133C209.204,63.133 210.145,64.186 210.145,66.382L205.35,66.382Z" style="fill-rule:nonzero;"/>
            <path d="M213.73,72.745C214.245,72.902 214.872,72.947 215.522,72.947C216.799,72.947 217.539,72.835 218.301,72.566L218.301,72.14L216.755,71.804L216.755,64.679C217.382,64.074 218.032,63.76 218.726,63.76C219.197,63.76 219.69,63.939 220.116,64.275C220.34,63.85 220.474,63.357 220.474,62.931C220.474,62.304 220.093,61.968 219.309,61.968C218.547,61.968 217.942,62.304 217.337,62.953L216.71,63.648L216.687,63.648L216.687,62.08L216.15,62.08C215.5,62.08 214.492,62.192 213.461,62.483L213.461,62.976L214.917,63.581L214.917,71.154C214.917,71.692 214.312,72.14 213.73,72.364L213.73,72.745Z" style="fill-rule:nonzero;"/>
            <path d="M225.023,72.745C225.583,72.88 226.233,72.969 226.748,72.969C227.823,72.969 228.361,72.88 229.325,72.588L229.325,72.095L227.868,71.714L228.563,60.489L228.585,60.466L232.618,72.992L233.492,72.88L237.481,60.444L237.525,60.444L238.086,70.616C238.13,71.535 237.705,72.095 236.764,72.319L236.764,72.745C237.548,72.924 238.198,72.969 239.228,72.969C240.102,72.969 240.864,72.835 241.402,72.588L241.402,72.095L240.102,71.849L239.116,59.525L240.505,59.189L240.505,58.539C239.609,58.405 238.601,58.383 237.794,58.383L236.831,58.383L233.425,69.25L233.403,69.25L229.885,58.383L229.078,58.383C228.272,58.383 227.039,58.405 226.031,58.539L226.031,59.189L227.33,59.57L226.345,71.02C226.277,71.692 225.852,72.095 225.023,72.342L225.023,72.745Z" style="fill-rule:nonzero;"/>
            <path d="M242.769,70.594C242.769,72.028 243.934,73.081 245.614,73.081C246.802,73.081 248.012,72.611 248.639,72.006C248.908,72.476 249.244,72.835 249.67,73.104C250.252,72.812 250.857,72.364 251.193,71.961C250.79,71.647 250.454,71.221 250.297,70.818L250.364,67.188C250.387,66.538 250.454,65.418 250.454,64.925C250.454,63.065 249.11,61.923 246.847,61.923C244.225,61.923 243.172,62.752 243.172,64.186C243.172,64.432 243.194,64.634 243.239,64.858C244.18,63.917 245.368,63.402 246.6,63.402C248.012,63.402 248.594,63.917 248.594,66.337L248.594,66.942C244.92,66.942 242.769,68.622 242.769,70.594ZM244.696,70.258C244.696,69.048 246.062,67.995 248.594,67.995L248.594,71.132C248.034,71.468 247.138,71.737 246.443,71.737C245.3,71.737 244.696,71.154 244.696,70.258Z" style="fill-rule:nonzero;"/>
            <path d="M253.12,72.745C253.636,72.902 254.263,72.947 254.801,72.947C255.921,72.947 256.638,72.835 257.4,72.566L257.4,72.14L256.145,71.804L256.145,64.275C256.638,63.895 257.534,63.581 258.453,63.581C259.775,63.581 260.694,64.41 260.694,66.606L260.694,70.885C260.694,71.692 260.447,72.118 259.887,72.364L259.887,72.745C260.335,72.902 260.873,72.947 261.344,72.947C262.307,72.947 263.091,72.812 263.696,72.566L263.696,72.14L262.531,71.804L262.531,65.53C262.531,63.222 261.254,62.035 259.394,62.035C258.095,62.035 256.84,62.528 256.078,63.29L256.078,62.08L255.54,62.08C254.89,62.08 253.882,62.192 252.851,62.483L252.851,62.976L254.308,63.581L254.308,71.154C254.308,71.692 253.703,72.14 253.12,72.364L253.12,72.745Z" style="fill-rule:nonzero;"/>
            <path d="M265.13,70.594C265.13,72.028 266.295,73.081 267.976,73.081C269.163,73.081 270.373,72.611 271.001,72.006C271.27,72.476 271.606,72.835 272.031,73.104C272.614,72.812 273.219,72.364 273.555,71.961C273.152,71.647 272.816,71.221 272.659,70.818L272.726,67.188C272.748,66.538 272.816,65.418 272.816,64.925C272.816,63.065 271.471,61.923 269.208,61.923C266.587,61.923 265.534,62.752 265.534,64.186C265.534,64.432 265.556,64.634 265.601,64.858C266.542,63.917 267.729,63.402 268.962,63.402C270.373,63.402 270.956,63.917 270.956,66.337L270.956,66.942C267.281,66.942 265.13,68.622 265.13,70.594ZM267.057,70.258C267.057,69.048 268.424,67.995 270.956,67.995L270.956,71.132C270.396,71.468 269.499,71.737 268.805,71.737C267.662,71.737 267.057,71.154 267.057,70.258Z" style="fill-rule:nonzero;"/>
            <path d="M275.818,71.49C275.818,72.342 276.311,72.947 277.14,73.238L277.14,73.26C275.93,73.597 275.011,74.56 275.011,75.748C275.011,77.226 276.468,78.369 279.291,78.369C282.406,78.369 284.758,76.577 284.758,74.448C284.758,72.79 283.705,71.916 281.823,71.938L278.686,71.961C277.812,71.961 277.252,71.602 277.252,70.93C277.252,70.527 277.633,70.056 277.969,69.855C278.35,70.011 278.865,70.124 279.358,70.124C281.778,70.124 283.907,68.353 283.907,65.754C283.907,64.836 283.369,63.872 282.63,63.312L282.63,63.29C283.504,63.29 284.31,63.379 285.027,63.536L285.184,62.057C284.96,61.99 284.601,61.923 284.221,61.923C283.504,61.923 282.652,62.259 282.249,62.64C281.868,62.281 280.748,61.9 279.829,61.9C277.387,61.9 275.37,63.827 275.37,66.337C275.37,67.883 276.378,69.048 277.387,69.451L277.387,69.474C276.535,69.765 275.818,70.639 275.818,71.49ZM279.493,69.003C278.395,69.003 277.342,68.085 277.342,66.202C277.342,64.253 278.417,63.043 279.694,63.043C280.882,63.043 281.935,63.939 281.935,65.821C281.935,68.017 280.86,69.003 279.493,69.003ZM276.714,75.367C276.714,74.605 277.207,73.865 277.857,73.574L281.465,73.574C282.54,73.574 283.123,74.067 283.123,74.941C283.123,76.016 281.711,77.07 279.582,77.07C277.7,77.07 276.714,76.285 276.714,75.367Z" style="fill-rule:nonzero;"/>
            <path d="M285.901,67.95C285.901,71.087 287.985,73.081 290.539,73.081C292.914,73.081 294.393,72.14 294.393,71.132C294.393,70.908 294.348,70.661 294.303,70.549C293.452,71.132 292.242,71.513 291.144,71.513C289.284,71.513 287.828,70.056 287.828,67.547L294.438,67.547C294.46,66.987 294.46,66.538 294.46,66.113C294.46,63.536 293.004,61.923 290.584,61.923C288.254,61.923 285.901,64.051 285.901,67.95ZM287.873,66.382C287.873,64.612 289.172,63.133 290.405,63.133C291.727,63.133 292.668,64.186 292.668,66.382L287.873,66.382Z" style="fill-rule:nonzero;"/>
            <path d="M296.253,72.745C296.768,72.902 297.396,72.947 297.933,72.947C299.054,72.947 299.748,72.835 300.532,72.566L300.532,72.14L299.278,71.804L299.278,64.275C299.748,63.895 300.6,63.581 301.496,63.581C302.885,63.581 303.625,64.275 303.625,66.763L303.625,70.885C303.625,71.692 303.378,72.118 302.818,72.364L302.818,72.745C303.266,72.902 303.804,72.947 304.274,72.947C305.238,72.947 306,72.812 306.627,72.566L306.627,72.14L305.462,71.804L305.462,65.777C305.462,65.194 305.417,64.567 305.327,64.096C305.91,63.782 306.672,63.581 307.478,63.581C308.868,63.581 309.764,64.477 309.764,66.516L309.764,70.885C309.764,71.692 309.517,72.118 308.957,72.364L308.957,72.745C309.383,72.902 309.943,72.947 310.391,72.947C311.355,72.947 312.139,72.812 312.766,72.566L312.766,72.14L311.601,71.804L311.601,65.597C311.601,63.178 310.369,62.035 308.487,62.035C307.232,62.035 305.731,62.707 305.036,63.402C304.588,62.595 303.557,62.035 302.504,62.035C301.182,62.035 299.995,62.528 299.21,63.29L299.21,62.08L298.673,62.08C298.023,62.08 297.015,62.192 295.984,62.483L295.984,62.976L297.44,63.581L297.44,71.154C297.44,71.692 296.835,72.14 296.253,72.364L296.253,72.745Z" style="fill-rule:nonzero;"/>
            <path d="M314.312,67.95C314.312,71.087 316.396,73.081 318.951,73.081C321.326,73.081 322.804,72.14 322.804,71.132C322.804,70.908 322.76,70.661 322.715,70.549C321.863,71.132 320.653,71.513 319.556,71.513C317.696,71.513 316.239,70.056 316.239,67.547L322.849,67.547C322.872,66.987 322.872,66.538 322.872,66.113C322.872,63.536 321.415,61.923 318.995,61.923C316.665,61.923 314.312,64.051 314.312,67.95ZM316.284,66.382C316.284,64.612 317.584,63.133 318.816,63.133C320.138,63.133 321.079,64.186 321.079,66.382L316.284,66.382Z" style="fill-rule:nonzero;"/>
            <path d="M324.664,72.745C325.18,72.902 325.807,72.947 326.345,72.947C327.465,72.947 328.182,72.835 328.944,72.566L328.944,72.14L327.689,71.804L327.689,64.275C328.182,63.895 329.078,63.581 329.997,63.581C331.319,63.581 332.238,64.41 332.238,66.606L332.238,70.885C332.238,71.692 331.991,72.118 331.431,72.364L331.431,72.745C331.879,72.902 332.417,72.947 332.887,72.947C333.851,72.947 334.635,72.812 335.24,72.566L335.24,72.14L334.075,71.804L334.075,65.53C334.075,63.222 332.798,62.035 330.938,62.035C329.638,62.035 328.384,62.528 327.622,63.29L327.622,62.08L327.084,62.08C326.434,62.08 325.426,62.192 324.395,62.483L324.395,62.976L325.852,63.581L325.852,71.154C325.852,71.692 325.247,72.14 324.664,72.364L324.664,72.745Z" style="fill-rule:nonzero;"/>
            <path d="M337.884,69.922C337.884,72.095 338.758,73.036 340.55,73.036C342.096,73.036 342.881,72.364 342.97,71.042L342.746,70.953C342.298,71.311 341.738,71.535 341.088,71.535C340.259,71.535 339.721,70.908 339.721,69.093C339.721,68.264 339.721,67.412 339.744,66.471L339.789,63.648L342.657,63.648L342.813,62.438L339.856,62.438L339.945,60.422L339.206,60.511L336.786,62.909L336.786,63.648L338.018,63.648L337.951,66.628C337.929,67.659 337.884,68.846 337.884,69.922Z" style="fill-rule:nonzero;"/>
        </g>
    </g>
</svg>
